<?xml version="1.0" encoding="UTF-8"?>
<!DOCTYPE svg PUBLIC "-//W3C//DTD SVG 1.1//EN" "http://www.w3.org/Graphics/SVG/1.1/DTD/svg11.dtd">
<svg xmlns="http://www.w3.org/2000/svg" version="1.1" width="103px" height="74px" style="shape-rendering:geometricPrecision; text-rendering:geometricPrecision; image-rendering:optimizeQuality; fill-rule:evenodd; clip-rule:evenodd" xmlns:xlink="http://www.w3.org/1999/xlink">
<g><path style="opacity:0.936" fill="#b30603" d="M -0.5,-0.5 C 33.8333,-0.5 68.1667,-0.5 102.5,-0.5C 102.5,24.1667 102.5,48.8333 102.5,73.5C 68.1667,73.5 33.8333,73.5 -0.5,73.5C -0.5,48.8333 -0.5,24.1667 -0.5,-0.5 Z"/></g>
<g><path style="opacity:1" fill="#451112" d="M 64.5,3.5 C 55.5,3.5 46.5,3.5 37.5,3.5C 37.8195,8.36329 37.4861,13.03 36.5,17.5C 36.5,12.5 36.5,7.5 36.5,2.5C 46.015,2.17311 55.3483,2.50644 64.5,3.5 Z"/></g>
<g><path style="opacity:1" fill="#431112" d="M 98.5,3.5 C 89.5,3.5 80.5,3.5 71.5,3.5C 71.8182,8.03225 71.4849,12.3656 70.5,16.5C 70.5,11.8333 70.5,7.16667 70.5,2.5C 80.015,2.17311 89.3483,2.50644 98.5,3.5 Z"/></g>
<g><path style="opacity:1" fill="#4c0707" d="M 30.5,3.5 C 21.5,3.5 12.5,3.5 3.5,3.5C 3.5,25.1667 3.5,46.8333 3.5,68.5C 3.5,69.1667 3.5,69.8333 3.5,70.5C 2.50253,48.0061 2.1692,25.3395 2.5,2.5C 12.015,2.17311 21.3483,2.50644 30.5,3.5 Z"/></g>
<g><path style="opacity:1" fill="#2c2b2b" d="M 94.5,65.5 C 94.8329,46.1552 94.4996,26.8218 93.5,7.5C 92.5832,8.12723 91.5832,8.46056 90.5,8.5C 86.1667,8.5 81.8333,8.5 77.5,8.5C 76.4448,27.1529 76.2781,45.8196 77,64.5C 77.6708,63.7476 78.5041,63.4142 79.5,63.5C 82.5287,65.5262 85.862,67.1929 89.5,68.5C 92.4281,69.4841 95.4281,69.8174 98.5,69.5C 89.6822,70.4933 80.6822,70.8266 71.5,70.5C 71.4614,69.2438 71.9614,68.2438 73,67.5C 73.5,46.836 73.6666,26.1694 73.5,5.5C 81.1667,5.5 88.8333,5.5 96.5,5.5C 96.6666,26.1694 96.5,46.836 96,67.5C 95.2828,66.9558 94.7828,66.2891 94.5,65.5 Z"/></g>
<g><path style="opacity:1" fill="#383736" d="M 24.5,64.5 C 25.4969,46.0075 25.8302,27.3408 25.5,8.5C 22.525,8.71341 19.8584,9.71341 17.5,11.5C 18.7394,13.3115 19.4061,15.3115 19.5,17.5C 18.8534,20.2332 18.3534,22.8999 18,25.5C 19.2899,23.208 20.9565,21.208 23,19.5C 23.6667,21.8333 23.6667,24.1667 23,26.5C 21.4851,28.6772 19.9851,30.8439 18.5,33C 18.6667,33.5 18.8333,34 19,34.5C 23.2591,29.1771 24.5925,30.1771 23,37.5C 21.4851,39.6772 19.9851,41.8439 18.5,44C 18.6667,44.5 18.8333,45 19,45.5C 19.941,43.9386 21.1076,42.6053 22.5,41.5C 24.3087,46.8957 22.8087,51.2291 18,54.5C 17.5026,57.146 17.3359,59.8127 17.5,62.5C 14.5995,62.2796 11.9329,62.9462 9.5,64.5C 15.755,68.7974 22.755,70.4641 30.5,69.5C 21.6822,70.4933 12.6822,70.8266 3.5,70.5C 3.5,69.8333 3.5,69.1667 3.5,68.5C 4.45837,68.0472 5.2917,67.3805 6,66.5C 6.49995,46.5028 6.66662,26.5028 6.5,6.5C 13.7546,6.81322 20.9213,6.47989 28,5.5C 28.6497,25.8471 28.3163,46.1805 27,66.5C 26.0053,65.9341 25.172,65.2674 24.5,64.5 Z"/></g>
<g><path style="opacity:1" fill="#161212" d="M 30.5,3.5 C 30.5,8.16667 30.5,12.8333 30.5,17.5C 32.5,17.5 34.5,17.5 36.5,17.5C 37.4861,13.03 37.8195,8.36329 37.5,3.5C 46.5,3.5 55.5,3.5 64.5,3.5C 64.5,7.83333 64.5,12.1667 64.5,16.5C 66.5,16.5 68.5,16.5 70.5,16.5C 71.4849,12.3656 71.8182,8.03225 71.5,3.5C 80.5,3.5 89.5,3.5 98.5,3.5C 98.5,25.5 98.5,47.5 98.5,69.5C 95.4281,69.8174 92.4281,69.4841 89.5,68.5C 85.862,67.1929 82.5287,65.5262 79.5,63.5C 81.3792,62.6586 83.3792,62.3253 85.5,62.5C 88.5431,63.3448 91.5431,64.3448 94.5,65.5C 94.7828,66.2891 95.2828,66.9558 96,67.5C 96.5,46.836 96.6666,26.1694 96.5,5.5C 88.8333,5.5 81.1667,5.5 73.5,5.5C 73.6666,26.1694 73.5,46.836 73,67.5C 71.9614,68.2438 71.4614,69.2438 71.5,70.5C 70.5139,66.03 70.1805,61.3633 70.5,56.5C 68.5,56.5 66.5,56.5 64.5,56.5C 64.5,60.8333 64.5,65.1667 64.5,69.5C 61.5,69.5 58.5,69.5 55.5,69.5C 55.67,68.1779 55.3366,67.0113 54.5,66C 52.5,65.3333 50.5,64.6667 48.5,64C 50.1341,63.5065 51.8008,63.3398 53.5,63.5C 55.2161,63.6287 56.8828,63.962 58.5,64.5C 59.6883,65.3636 60.8549,66.3636 62,67.5C 62.6667,46.8333 62.6667,26.1667 62,5.5C 54.9213,6.47989 47.7546,6.81322 40.5,6.5C 40.6666,26.5028 40.5,46.5028 40,66.5C 38.5187,67.4709 37.6854,68.8042 37.5,70.5C 36.5139,66.03 36.1805,61.3633 36.5,56.5C 34.5,56.5 32.5,56.5 30.5,56.5C 30.5,60.8333 30.5,65.1667 30.5,69.5C 22.755,70.4641 15.755,68.7974 9.5,64.5C 11.9329,62.9462 14.5995,62.2796 17.5,62.5C 19.8333,63.1667 22.1667,63.8333 24.5,64.5C 25.172,65.2674 26.0053,65.9341 27,66.5C 28.3163,46.1805 28.6497,25.8471 28,5.5C 20.9213,6.47989 13.7546,6.81322 6.5,6.5C 6.66662,26.5028 6.49995,46.5028 6,66.5C 5.2917,67.3805 4.45837,68.0472 3.5,68.5C 3.5,46.8333 3.5,25.1667 3.5,3.5C 12.5,3.5 21.5,3.5 30.5,3.5 Z"/></g>
<g><path style="opacity:1" fill="#343332" d="M 58.5,64.5 C 59.4969,46.0075 59.8302,27.3408 59.5,8.5C 58.5,8.5 57.5,8.5 56.5,8.5C 52.1667,8.5 47.8333,8.5 43.5,8.5C 42.4786,27.1553 42.3119,45.822 43,64.5C 45.0065,63.3313 47.1732,62.6646 49.5,62.5C 50.3829,57.7742 49.2162,53.7742 46,50.5C 44.3692,47.3179 43.7025,43.9846 44,40.5C 45.1667,41.6667 46.3333,42.8333 47.5,44C 48.3317,44.6877 48.9984,44.521 49.5,43.5C 45.1336,39.7759 43.3003,35.1092 44,29.5C 45.1667,30.6667 46.3333,31.8333 47.5,33C 48.3317,33.6877 48.9984,33.521 49.5,32.5C 48.1851,30.6841 46.6851,29.0175 45,27.5C 42.4551,18.802 43.7884,17.802 49,24.5C 49.1273,22.3659 48.9607,20.1993 48.5,18C 48.5419,16.0326 49.0419,14.1992 50,12.5C 50.1762,16.6877 50.6762,20.6877 51.5,24.5C 51.4346,24.9382 51.6012,25.2716 52,25.5C 53.2899,23.208 54.9565,21.208 57,19.5C 57.6667,21.8333 57.6667,24.1667 57,26.5C 55.4851,28.6772 53.9851,30.8439 52.5,33C 52.6667,33.5 52.8333,34 53,34.5C 57.2591,29.1771 58.5925,30.1771 57,37.5C 55.4851,39.6772 53.9851,41.8439 52.5,44C 52.6667,44.5 52.8333,45 53,45.5C 53.941,43.9386 55.1076,42.6053 56.5,41.5C 58.3087,46.8957 56.8087,51.2291 52,54.5C 51.0935,57.8438 51.5935,60.8438 53.5,63.5C 51.8008,63.3398 50.1341,63.5065 48.5,64C 50.5,64.6667 52.5,65.3333 54.5,66C 55.3366,67.0113 55.67,68.1779 55.5,69.5C 58.5,69.5 61.5,69.5 64.5,69.5C 55.6822,70.4933 46.6822,70.8266 37.5,70.5C 37.6854,68.8042 38.5187,67.4709 40,66.5C 40.5,46.5028 40.6666,26.5028 40.5,6.5C 47.7546,6.81322 54.9213,6.47989 62,5.5C 62.6667,26.1667 62.6667,46.8333 62,67.5C 60.8549,66.3636 59.6883,65.3636 58.5,64.5 Z"/></g>
<g><path style="opacity:1" fill="#343431" d="M 86.5,23.5 C 88.1288,22.3747 89.6288,21.0414 91,19.5C 91.6667,21.8333 91.6667,24.1667 91,26.5C 89.4851,28.6772 87.9851,30.8439 86.5,33C 86.6667,33.5 86.8333,34 87,34.5C 91.2591,29.1771 92.5925,30.1771 91,37.5C 89.4851,39.6772 87.9851,41.8439 86.5,44C 86.6667,44.5 86.8333,45 87,45.5C 89.9804,39.9135 91.4804,40.2469 91.5,46.5C 89.4078,46.5614 87.9078,47.5614 87,49.5C 86.6667,49.1667 86.3333,48.8333 86,48.5C 85.4814,54.2856 83.4814,54.9522 80,50.5C 78.0691,47.386 77.4024,44.0527 78,40.5C 79.1667,41.6667 80.3333,42.8333 81.5,44C 82.3317,44.6877 82.9984,44.521 83.5,43.5C 78.8152,39.9444 76.9819,35.2777 78,29.5C 79.1667,30.6667 80.3333,31.8333 81.5,33C 82.3317,33.6877 82.9984,33.521 83.5,32.5C 82.1851,30.6841 80.6851,29.0175 79,27.5C 77.8102,24.8056 77.6435,22.1389 78.5,19.5C 79.8139,20.3128 80.9805,21.3128 82,22.5C 82.1802,19.0445 82.8468,15.7111 84,12.5C 84.3333,16.5 84.6667,20.5 85,24.5C 85.3826,23.944 85.8826,23.6107 86.5,23.5 Z"/></g>
<g><path style="opacity:1" fill="#ba0000" d="M 30.5,24.5 C 32.5,24.5 34.5,24.5 36.5,24.5C 36.5,32.8333 36.5,41.1667 36.5,49.5C 34.5,49.5 32.5,49.5 30.5,49.5C 30.5,41.1667 30.5,32.8333 30.5,24.5 Z"/></g>
<g><path style="opacity:1" fill="#ba0000" d="M 64.5,23.5 C 66.5,23.5 68.5,23.5 70.5,23.5C 70.5,32.1667 70.5,40.8333 70.5,49.5C 68.5,49.5 66.5,49.5 64.5,49.5C 64.5,40.8333 64.5,32.1667 64.5,23.5 Z"/></g>
<g><path style="opacity:1" fill="#595959" d="M 24.5,64.5 C 22.1667,63.8333 19.8333,63.1667 17.5,62.5C 17.3359,59.8127 17.5026,57.146 18,54.5C 22.8087,51.2291 24.3087,46.8957 22.5,41.5C 21.1076,42.6053 19.941,43.9386 19,45.5C 18.8333,45 18.6667,44.5 18.5,44C 19.9851,41.8439 21.4851,39.6772 23,37.5C 24.5925,30.1771 23.2591,29.1771 19,34.5C 18.8333,34 18.6667,33.5 18.5,33C 19.9851,30.8439 21.4851,28.6772 23,26.5C 23.6667,24.1667 23.6667,21.8333 23,19.5C 20.9565,21.208 19.2899,23.208 18,25.5C 18.3534,22.8999 18.8534,20.2332 19.5,17.5C 19.4061,15.3115 18.7394,13.3115 17.5,11.5C 19.8584,9.71341 22.525,8.71341 25.5,8.5C 25.8302,27.3408 25.4969,46.0075 24.5,64.5 Z"/></g>
<g><path style="opacity:1" fill="#595959" d="M 56.5,8.5 C 57.5,8.5 58.5,8.5 59.5,8.5C 59.8302,27.3408 59.4969,46.0075 58.5,64.5C 56.8828,63.962 55.2161,63.6287 53.5,63.5C 51.5935,60.8438 51.0935,57.8438 52,54.5C 56.8087,51.2291 58.3087,46.8957 56.5,41.5C 55.1076,42.6053 53.941,43.9386 53,45.5C 52.8333,45 52.6667,44.5 52.5,44C 53.9851,41.8439 55.4851,39.6772 57,37.5C 58.5925,30.1771 57.2591,29.1771 53,34.5C 52.8333,34 52.6667,33.5 52.5,33C 53.9851,30.8439 55.4851,28.6772 57,26.5C 57.6667,24.1667 57.6667,21.8333 57,19.5C 54.9565,21.208 53.2899,23.208 52,25.5C 51.6012,25.2716 51.4346,24.9382 51.5,24.5C 54.155,20.1983 54.155,15.8649 51.5,11.5C 53.1446,10.3037 54.8113,9.30374 56.5,8.5 Z"/></g>
<g><path style="opacity:1" fill="#565656" d="M 94.5,65.5 C 91.5431,64.3448 88.5431,63.3448 85.5,62.5C 85.3359,59.8127 85.5026,57.146 86,54.5C 88.5945,52.2964 90.4278,49.6297 91.5,46.5C 91.4804,40.2469 89.9804,39.9135 87,45.5C 86.8333,45 86.6667,44.5 86.5,44C 87.9851,41.8439 89.4851,39.6772 91,37.5C 92.5925,30.1771 91.2591,29.1771 87,34.5C 86.8333,34 86.6667,33.5 86.5,33C 87.9851,30.8439 89.4851,28.6772 91,26.5C 91.6667,24.1667 91.6667,21.8333 91,19.5C 89.6288,21.0414 88.1288,22.3747 86.5,23.5C 88.0697,19.5105 87.7364,15.6772 85.5,12C 86.921,10.3771 88.5876,9.21046 90.5,8.5C 91.5832,8.46056 92.5832,8.12723 93.5,7.5C 94.4996,26.8218 94.8329,46.1552 94.5,65.5 Z"/></g>
<g><path style="opacity:1" fill="#424242" d="M 56.5,8.5 C 54.8113,9.30374 53.1446,10.3037 51.5,11.5C 54.155,15.8649 54.155,20.1983 51.5,24.5C 50.6762,20.6877 50.1762,16.6877 50,12.5C 49.0419,14.1992 48.5419,16.0326 48.5,18C 48.9607,20.1993 49.1273,22.3659 49,24.5C 43.7884,17.802 42.4551,18.802 45,27.5C 46.6851,29.0175 48.1851,30.6841 49.5,32.5C 48.9984,33.521 48.3317,33.6877 47.5,33C 46.3333,31.8333 45.1667,30.6667 44,29.5C 43.3003,35.1092 45.1336,39.7759 49.5,43.5C 48.9984,44.521 48.3317,44.6877 47.5,44C 46.3333,42.8333 45.1667,41.6667 44,40.5C 43.7025,43.9846 44.3692,47.3179 46,50.5C 49.2162,53.7742 50.3829,57.7742 49.5,62.5C 47.1732,62.6646 45.0065,63.3313 43,64.5C 42.3119,45.822 42.4786,27.1553 43.5,8.5C 47.8333,8.5 52.1667,8.5 56.5,8.5 Z"/></g>
<g><path style="opacity:1" fill="#424241" d="M 90.5,8.5 C 88.5876,9.21046 86.921,10.3771 85.5,12C 87.7364,15.6772 88.0697,19.5105 86.5,23.5C 85.8826,23.6107 85.3826,23.944 85,24.5C 84.6667,20.5 84.3333,16.5 84,12.5C 82.8468,15.7111 82.1802,19.0445 82,22.5C 80.9805,21.3128 79.8139,20.3128 78.5,19.5C 77.6435,22.1389 77.8102,24.8056 79,27.5C 80.6851,29.0175 82.1851,30.6841 83.5,32.5C 82.9984,33.521 82.3317,33.6877 81.5,33C 80.3333,31.8333 79.1667,30.6667 78,29.5C 76.9819,35.2777 78.8152,39.9444 83.5,43.5C 82.9984,44.521 82.3317,44.6877 81.5,44C 80.3333,42.8333 79.1667,41.6667 78,40.5C 77.4024,44.0527 78.0691,47.386 80,50.5C 83.4814,54.9522 85.4814,54.2856 86,48.5C 86.3333,48.8333 86.6667,49.1667 87,49.5C 87.9078,47.5614 89.4078,46.5614 91.5,46.5C 90.4278,49.6297 88.5945,52.2964 86,54.5C 85.5026,57.146 85.3359,59.8127 85.5,62.5C 83.3792,62.3253 81.3792,62.6586 79.5,63.5C 78.5041,63.4142 77.6708,63.7476 77,64.5C 76.2781,45.8196 76.4448,27.1529 77.5,8.5C 81.8333,8.5 86.1667,8.5 90.5,8.5 Z"/></g>
</svg>
