<?xml version="1.0" encoding="UTF-8"?>
<svg xmlns="http://www.w3.org/2000/svg" xmlns:xlink="http://www.w3.org/1999/xlink" width="px" height="px" viewBox="0 0 51 37" version="1.1">
<defs>
<filter id="alpha" filterUnits="objectBoundingBox" x="0%" y="0%" width="100%" height="100%">
  <feColorMatrix type="matrix" in="SourceGraphic" values="0 0 0 0 1 0 0 0 0 1 0 0 0 0 1 0 0 0 1 0"/>
</filter>
<mask id="mask0">
  <g filter="url(#alpha)">
<rect x="0" y="0" width="51" height="37" style="fill:rgb(0%,0%,0%);fill-opacity:0.937255;stroke:none;"/>
  </g>
</mask>
<clipPath id="clip1">
  <rect x="0" y="0" width="51" height="37"/>
</clipPath>
<g id="surface5" clip-path="url(#clip1)">
<path style=" stroke:none;fill-rule:evenodd;fill:rgb(70.196078%,2.352941%,1.176471%);fill-opacity:1;" d="M -0.246094 -0.25 C 16.753906 -0.25 33.753906 -0.25 50.753906 -0.25 C 50.753906 12.082031 50.753906 24.417969 50.753906 36.75 C 33.753906 36.75 16.753906 36.75 -0.246094 36.75 C -0.246094 24.417969 -0.246094 12.082031 -0.246094 -0.25 Z M -0.246094 -0.25 "/>
</g>
</defs>
<g id="surface1">
<use xlink:href="#surface5" mask="url(#mask0)"/>
<path style=" stroke:none;fill-rule:evenodd;fill:rgb(27.058824%,6.666667%,7.058824%);fill-opacity:1;" d="M 31.9375 1.75 C 27.480469 1.75 23.023438 1.75 18.566406 1.75 C 18.726562 4.183594 18.5625 6.515625 18.074219 8.75 C 18.074219 6.25 18.074219 3.75 18.074219 1.25 C 22.785156 1.085938 27.40625 1.253906 31.9375 1.75 Z M 31.9375 1.75 "/>
<path style=" stroke:none;fill-rule:evenodd;fill:rgb(26.27451%,6.666667%,7.058824%);fill-opacity:1;" d="M 48.773438 1.75 C 44.316406 1.75 39.859375 1.75 35.402344 1.75 C 35.558594 4.015625 35.394531 6.183594 34.90625 8.25 C 34.90625 5.917969 34.90625 3.582031 34.90625 1.25 C 39.617188 1.085938 44.242188 1.253906 48.773438 1.75 Z M 48.773438 1.75 "/>
<path style=" stroke:none;fill-rule:evenodd;fill:rgb(29.803922%,2.745098%,2.745098%);fill-opacity:1;" d="M 15.101562 1.75 C 10.644531 1.75 6.1875 1.75 1.734375 1.75 C 1.734375 12.582031 1.734375 23.417969 1.734375 34.25 C 1.734375 34.582031 1.734375 34.917969 1.734375 35.25 C 1.238281 24.003906 1.074219 12.667969 1.238281 1.25 C 5.949219 1.085938 10.570312 1.253906 15.101562 1.75 Z M 15.101562 1.75 "/>
<path style=" stroke:none;fill-rule:evenodd;fill:rgb(17.254902%,16.862745%,16.862745%);fill-opacity:1;" d="M 46.792969 32.75 C 46.957031 23.078125 46.792969 13.410156 46.296875 3.75 C 45.84375 4.0625 45.347656 4.230469 44.8125 4.25 C 42.664062 4.25 40.519531 4.25 38.375 4.25 C 37.851562 13.578125 37.769531 22.910156 38.125 32.25 C 38.457031 31.875 38.871094 31.707031 39.363281 31.75 C 40.863281 32.761719 42.515625 33.597656 44.316406 34.25 C 45.765625 34.742188 47.25 34.910156 48.773438 34.75 C 44.40625 35.246094 39.949219 35.414062 35.402344 35.25 C 35.382812 34.621094 35.632812 34.121094 36.144531 33.75 C 36.394531 23.417969 36.476562 13.085938 36.394531 2.75 C 40.1875 2.75 43.984375 2.75 47.78125 2.75 C 47.863281 13.085938 47.78125 23.417969 47.535156 33.75 C 47.179688 33.476562 46.929688 33.144531 46.792969 32.75 Z M 46.792969 32.75 "/>
<path style=" stroke:none;fill-rule:evenodd;fill:rgb(21.960784%,21.568627%,21.176471%);fill-opacity:1;" d="M 12.132812 32.25 C 12.625 23.003906 12.789062 13.671875 12.625 4.25 C 11.152344 4.355469 9.832031 4.855469 8.664062 5.75 C 9.277344 6.65625 9.609375 7.65625 9.65625 8.75 C 9.335938 10.117188 9.085938 11.449219 8.914062 12.75 C 9.550781 11.605469 10.375 10.605469 11.386719 9.75 C 11.71875 10.917969 11.71875 12.082031 11.386719 13.25 C 10.636719 14.339844 9.894531 15.421875 9.160156 16.5 C 9.242188 16.75 9.324219 17 9.40625 17.25 C 11.515625 14.589844 12.175781 15.089844 11.386719 18.75 C 10.636719 19.839844 9.894531 20.921875 9.160156 22 C 9.242188 22.25 9.324219 22.5 9.40625 22.75 C 9.875 21.96875 10.453125 21.300781 11.140625 20.75 C 12.035156 23.449219 11.292969 25.613281 8.914062 27.25 C 8.667969 28.574219 8.582031 29.90625 8.664062 31.25 C 7.230469 31.140625 5.910156 31.472656 4.703125 32.25 C 7.800781 34.398438 11.265625 35.230469 15.101562 34.75 C 10.734375 35.246094 6.28125 35.414062 1.734375 35.25 C 1.734375 34.917969 1.734375 34.582031 1.734375 34.25 C 2.207031 34.023438 2.621094 33.691406 2.972656 33.25 C 3.21875 23.25 3.300781 13.25 3.21875 3.25 C 6.808594 3.40625 10.359375 3.238281 13.863281 2.75 C 14.1875 12.921875 14.019531 23.089844 13.367188 33.25 C 12.875 32.96875 12.464844 32.632812 12.132812 32.25 Z M 12.132812 32.25 "/>
<path style=" stroke:none;fill-rule:evenodd;fill:rgb(8.627451%,7.058824%,7.058824%);fill-opacity:1;" d="M 15.101562 1.75 C 15.101562 4.082031 15.101562 6.417969 15.101562 8.75 C 16.09375 8.75 17.082031 8.75 18.074219 8.75 C 18.5625 6.515625 18.726562 4.183594 18.566406 1.75 C 23.023438 1.75 27.480469 1.75 31.9375 1.75 C 31.9375 3.917969 31.9375 6.082031 31.9375 8.25 C 32.925781 8.25 33.917969 8.25 34.90625 8.25 C 35.394531 6.183594 35.558594 4.015625 35.402344 1.75 C 39.859375 1.75 44.316406 1.75 48.773438 1.75 C 48.773438 12.75 48.773438 23.75 48.773438 34.75 C 47.25 34.910156 45.765625 34.742188 44.316406 34.25 C 42.515625 33.597656 40.863281 32.761719 39.363281 31.75 C 40.292969 31.328125 41.285156 31.164062 42.335938 31.25 C 43.839844 31.671875 45.328125 32.171875 46.792969 32.75 C 46.929688 33.144531 47.179688 33.476562 47.535156 33.75 C 47.78125 23.417969 47.863281 13.085938 47.78125 2.75 C 43.984375 2.75 40.1875 2.75 36.394531 2.75 C 36.476562 13.085938 36.394531 23.417969 36.144531 33.75 C 35.632812 34.121094 35.382812 34.621094 35.402344 35.25 C 34.914062 33.015625 34.75 30.683594 34.90625 28.25 C 33.917969 28.25 32.925781 28.25 31.9375 28.25 C 31.9375 30.417969 31.9375 32.582031 31.9375 34.75 C 30.453125 34.75 28.964844 34.75 27.480469 34.75 C 27.566406 34.089844 27.398438 33.503906 26.984375 33 C 25.996094 32.667969 25.003906 32.332031 24.015625 32 C 24.824219 31.753906 25.648438 31.667969 26.492188 31.75 C 27.339844 31.8125 28.164062 31.980469 28.964844 32.25 C 29.554688 32.683594 30.132812 33.183594 30.699219 33.75 C 31.027344 23.417969 31.027344 13.082031 30.699219 2.75 C 27.195312 3.238281 23.644531 3.40625 20.054688 3.25 C 20.136719 13.25 20.054688 23.25 19.804688 33.25 C 19.074219 33.734375 18.660156 34.402344 18.566406 35.25 C 18.078125 33.015625 17.914062 30.683594 18.074219 28.25 C 17.082031 28.25 16.09375 28.25 15.101562 28.25 C 15.101562 30.417969 15.101562 32.582031 15.101562 34.75 C 11.265625 35.230469 7.800781 34.398438 4.703125 32.25 C 5.910156 31.472656 7.230469 31.140625 8.664062 31.25 C 9.820312 31.582031 10.976562 31.917969 12.132812 32.25 C 12.464844 32.632812 12.875 32.96875 13.367188 33.25 C 14.019531 23.089844 14.1875 12.921875 13.863281 2.75 C 10.359375 3.238281 6.808594 3.40625 3.21875 3.25 C 3.300781 13.25 3.21875 23.25 2.972656 33.25 C 2.621094 33.691406 2.207031 34.023438 1.734375 34.25 C 1.734375 23.417969 1.734375 12.582031 1.734375 1.75 C 6.1875 1.75 10.644531 1.75 15.101562 1.75 Z M 15.101562 1.75 "/>
<path style=" stroke:none;fill-rule:evenodd;fill:rgb(20.392157%,20%,19.607843%);fill-opacity:1;" d="M 28.964844 32.25 C 29.460938 23.003906 29.625 13.671875 29.460938 4.25 C 28.964844 4.25 28.472656 4.25 27.976562 4.25 C 25.832031 4.25 23.683594 4.25 21.539062 4.25 C 21.03125 13.578125 20.949219 22.910156 21.292969 32.25 C 22.285156 31.664062 23.359375 31.332031 24.507812 31.25 C 24.945312 28.886719 24.371094 26.886719 22.777344 25.25 C 21.96875 23.660156 21.640625 21.992188 21.785156 20.25 C 22.363281 20.832031 22.941406 21.417969 23.519531 22 C 23.929688 22.34375 24.261719 22.261719 24.507812 21.75 C 22.347656 19.886719 21.441406 17.554688 21.785156 14.75 C 22.363281 15.332031 22.941406 15.917969 23.519531 16.5 C 23.929688 16.84375 24.261719 16.761719 24.507812 16.25 C 23.859375 15.34375 23.117188 14.507812 22.28125 13.75 C 21.019531 9.402344 21.679688 8.902344 24.261719 12.25 C 24.324219 11.183594 24.242188 10.101562 24.015625 9 C 24.035156 8.015625 24.28125 7.097656 24.757812 6.25 C 24.84375 8.34375 25.09375 10.34375 25.5 12.25 C 25.46875 12.46875 25.550781 12.636719 25.746094 12.75 C 26.386719 11.605469 27.210938 10.605469 28.222656 9.75 C 28.554688 10.917969 28.554688 12.082031 28.222656 13.25 C 27.472656 14.339844 26.730469 15.421875 25.996094 16.5 C 26.078125 16.75 26.160156 17 26.242188 17.25 C 28.351562 14.589844 29.011719 15.089844 28.222656 18.75 C 27.472656 19.839844 26.730469 20.921875 25.996094 22 C 26.078125 22.25 26.160156 22.5 26.242188 22.75 C 26.707031 21.96875 27.285156 21.300781 27.976562 20.75 C 28.871094 23.449219 28.128906 25.613281 25.746094 27.25 C 25.296875 28.921875 25.546875 30.421875 26.492188 31.75 C 25.648438 31.667969 24.824219 31.753906 24.015625 32 C 25.003906 32.332031 25.996094 32.667969 26.984375 33 C 27.398438 33.503906 27.566406 34.089844 27.480469 34.75 C 28.964844 34.75 30.453125 34.75 31.9375 34.75 C 27.570312 35.246094 23.113281 35.414062 18.566406 35.25 C 18.660156 34.402344 19.074219 33.734375 19.804688 33.25 C 20.054688 23.25 20.136719 13.25 20.054688 3.25 C 23.644531 3.40625 27.195312 3.238281 30.699219 2.75 C 31.027344 13.082031 31.027344 23.417969 30.699219 33.75 C 30.132812 33.183594 29.554688 32.683594 28.964844 32.25 Z M 28.964844 32.25 "/>
<path style=" stroke:none;fill-rule:evenodd;fill:rgb(20.392157%,20.392157%,19.215686%);fill-opacity:1;" d="M 42.832031 11.75 C 43.636719 11.1875 44.378906 10.519531 45.058594 9.75 C 45.386719 10.917969 45.386719 12.082031 45.058594 13.25 C 44.308594 14.339844 43.566406 15.421875 42.832031 16.5 C 42.914062 16.75 42.996094 17 43.078125 17.25 C 45.1875 14.589844 45.847656 15.089844 45.058594 18.75 C 44.308594 19.839844 43.566406 20.921875 42.832031 22 C 42.914062 22.25 42.996094 22.5 43.078125 22.75 C 44.554688 19.957031 45.296875 20.125 45.304688 23.25 C 44.269531 23.28125 43.527344 23.78125 43.078125 24.75 C 42.914062 24.582031 42.746094 24.417969 42.582031 24.25 C 42.324219 27.144531 41.335938 27.476562 39.613281 25.25 C 38.65625 23.691406 38.324219 22.027344 38.621094 20.25 C 39.199219 20.832031 39.777344 21.417969 40.355469 22 C 40.765625 22.34375 41.097656 22.261719 41.34375 21.75 C 39.023438 19.972656 38.117188 17.640625 38.621094 14.75 C 39.199219 15.332031 39.777344 15.917969 40.355469 16.5 C 40.765625 16.84375 41.097656 16.761719 41.34375 16.25 C 40.695312 15.34375 39.949219 14.507812 39.117188 13.75 C 38.527344 12.402344 38.445312 11.070312 38.867188 9.75 C 39.519531 10.15625 40.097656 10.65625 40.601562 11.25 C 40.691406 9.523438 41.019531 7.855469 41.59375 6.25 C 41.757812 8.25 41.921875 10.25 42.085938 12.25 C 42.277344 11.972656 42.523438 11.804688 42.832031 11.75 Z M 42.832031 11.75 "/>
<path style=" stroke:none;fill-rule:evenodd;fill:rgb(72.941176%,0%,0%);fill-opacity:1;" d="M 15.101562 12.25 C 16.09375 12.25 17.082031 12.25 18.074219 12.25 C 18.074219 16.417969 18.074219 20.582031 18.074219 24.75 C 17.082031 24.75 16.09375 24.75 15.101562 24.75 C 15.101562 20.582031 15.101562 16.417969 15.101562 12.25 Z M 15.101562 12.25 "/>
<path style=" stroke:none;fill-rule:evenodd;fill:rgb(72.941176%,0%,0%);fill-opacity:1;" d="M 31.9375 11.75 C 32.925781 11.75 33.917969 11.75 34.90625 11.75 C 34.90625 16.082031 34.90625 20.417969 34.90625 24.75 C 33.917969 24.75 32.925781 24.75 31.9375 24.75 C 31.9375 20.417969 31.9375 16.082031 31.9375 11.75 Z M 31.9375 11.75 "/>
<path style=" stroke:none;fill-rule:evenodd;fill:rgb(34.901961%,34.901961%,34.901961%);fill-opacity:1;" d="M 12.132812 32.25 C 10.976562 31.917969 9.820312 31.582031 8.664062 31.25 C 8.582031 29.90625 8.667969 28.574219 8.914062 27.25 C 11.292969 25.613281 12.035156 23.449219 11.140625 20.75 C 10.453125 21.300781 9.875 21.96875 9.40625 22.75 C 9.324219 22.5 9.242188 22.25 9.160156 22 C 9.894531 20.921875 10.636719 19.839844 11.386719 18.75 C 12.175781 15.089844 11.515625 14.589844 9.40625 17.25 C 9.324219 17 9.242188 16.75 9.160156 16.5 C 9.894531 15.421875 10.636719 14.339844 11.386719 13.25 C 11.71875 12.082031 11.71875 10.917969 11.386719 9.75 C 10.375 10.605469 9.550781 11.605469 8.914062 12.75 C 9.085938 11.449219 9.335938 10.117188 9.65625 8.75 C 9.609375 7.65625 9.277344 6.65625 8.664062 5.75 C 9.832031 4.855469 11.152344 4.355469 12.625 4.25 C 12.789062 13.671875 12.625 23.003906 12.132812 32.25 Z M 12.132812 32.25 "/>
<path style=" stroke:none;fill-rule:evenodd;fill:rgb(34.901961%,34.901961%,34.901961%);fill-opacity:1;" d="M 27.976562 4.25 C 28.472656 4.25 28.964844 4.25 29.460938 4.25 C 29.625 13.671875 29.460938 23.003906 28.964844 32.25 C 28.164062 31.980469 27.339844 31.8125 26.492188 31.75 C 25.546875 30.421875 25.296875 28.921875 25.746094 27.25 C 28.128906 25.613281 28.871094 23.449219 27.976562 20.75 C 27.285156 21.300781 26.707031 21.96875 26.242188 22.75 C 26.160156 22.5 26.078125 22.25 25.996094 22 C 26.730469 20.921875 27.472656 19.839844 28.222656 18.75 C 29.011719 15.089844 28.351562 14.589844 26.242188 17.25 C 26.160156 17 26.078125 16.75 25.996094 16.5 C 26.730469 15.421875 27.472656 14.339844 28.222656 13.25 C 28.554688 12.082031 28.554688 10.917969 28.222656 9.75 C 27.210938 10.605469 26.386719 11.605469 25.746094 12.75 C 25.550781 12.636719 25.46875 12.46875 25.5 12.25 C 26.816406 10.097656 26.816406 7.933594 25.5 5.75 C 26.3125 5.152344 27.140625 4.652344 27.976562 4.25 Z M 27.976562 4.25 "/>
<path style=" stroke:none;fill-rule:evenodd;fill:rgb(33.72549%,33.72549%,33.72549%);fill-opacity:1;" d="M 46.792969 32.75 C 45.328125 32.171875 43.839844 31.671875 42.335938 31.25 C 42.253906 29.90625 42.335938 28.574219 42.582031 27.25 C 43.867188 26.148438 44.773438 24.816406 45.304688 23.25 C 45.296875 20.125 44.554688 19.957031 43.078125 22.75 C 42.996094 22.5 42.914062 22.25 42.832031 22 C 43.566406 20.921875 44.308594 19.839844 45.058594 18.75 C 45.847656 15.089844 45.1875 14.589844 43.078125 17.25 C 42.996094 17 42.914062 16.75 42.832031 16.5 C 43.566406 15.421875 44.308594 14.339844 45.058594 13.25 C 45.386719 12.082031 45.386719 10.917969 45.058594 9.75 C 44.378906 10.519531 43.636719 11.1875 42.832031 11.75 C 43.605469 9.753906 43.441406 7.839844 42.335938 6 C 43.039062 5.1875 43.863281 4.605469 44.8125 4.25 C 45.347656 4.230469 45.84375 4.0625 46.296875 3.75 C 46.792969 13.410156 46.957031 23.078125 46.792969 32.75 Z M 46.792969 32.75 "/>
<path style=" stroke:none;fill-rule:evenodd;fill:rgb(25.882353%,25.882353%,25.882353%);fill-opacity:1;" d="M 27.976562 4.25 C 27.140625 4.652344 26.3125 5.152344 25.5 5.75 C 26.816406 7.933594 26.816406 10.097656 25.5 12.25 C 25.09375 10.34375 24.84375 8.34375 24.757812 6.25 C 24.28125 7.097656 24.035156 8.015625 24.015625 9 C 24.242188 10.101562 24.324219 11.183594 24.261719 12.25 C 21.679688 8.902344 21.019531 9.402344 22.28125 13.75 C 23.117188 14.507812 23.859375 15.34375 24.507812 16.25 C 24.261719 16.761719 23.929688 16.84375 23.519531 16.5 C 22.941406 15.917969 22.363281 15.332031 21.785156 14.75 C 21.441406 17.554688 22.347656 19.886719 24.507812 21.75 C 24.261719 22.261719 23.929688 22.34375 23.519531 22 C 22.941406 21.417969 22.363281 20.832031 21.785156 20.25 C 21.640625 21.992188 21.96875 23.660156 22.777344 25.25 C 24.371094 26.886719 24.945312 28.886719 24.507812 31.25 C 23.359375 31.332031 22.285156 31.664062 21.292969 32.25 C 20.949219 22.910156 21.03125 13.578125 21.539062 4.25 C 23.683594 4.25 25.832031 4.25 27.976562 4.25 Z M 27.976562 4.25 "/>
<path style=" stroke:none;fill-rule:evenodd;fill:rgb(25.882353%,25.882353%,25.490196%);fill-opacity:1;" d="M 44.8125 4.25 C 43.863281 4.605469 43.039062 5.1875 42.335938 6 C 43.441406 7.839844 43.605469 9.753906 42.832031 11.75 C 42.523438 11.804688 42.277344 11.972656 42.085938 12.25 C 41.921875 10.25 41.757812 8.25 41.59375 6.25 C 41.019531 7.855469 40.691406 9.523438 40.601562 11.25 C 40.097656 10.65625 39.519531 10.15625 38.867188 9.75 C 38.445312 11.070312 38.527344 12.402344 39.117188 13.75 C 39.949219 14.507812 40.695312 15.34375 41.34375 16.25 C 41.097656 16.761719 40.765625 16.84375 40.355469 16.5 C 39.777344 15.917969 39.199219 15.332031 38.621094 14.75 C 38.117188 17.640625 39.023438 19.972656 41.34375 21.75 C 41.097656 22.261719 40.765625 22.34375 40.355469 22 C 39.777344 21.417969 39.199219 20.832031 38.621094 20.25 C 38.324219 22.027344 38.65625 23.691406 39.613281 25.25 C 41.335938 27.476562 42.324219 27.144531 42.582031 24.25 C 42.746094 24.417969 42.914062 24.582031 43.078125 24.75 C 43.527344 23.78125 44.269531 23.28125 45.304688 23.25 C 44.773438 24.816406 43.867188 26.148438 42.582031 27.25 C 42.335938 28.574219 42.253906 29.90625 42.335938 31.25 C 41.285156 31.164062 40.292969 31.328125 39.363281 31.75 C 38.871094 31.707031 38.457031 31.875 38.125 32.25 C 37.769531 22.910156 37.851562 13.578125 38.375 4.25 C 40.519531 4.25 42.664062 4.25 44.8125 4.25 Z M 44.8125 4.25 "/>
</g>
</svg>
