<?xml version="1.0" encoding="UTF-8"?>
<!DOCTYPE svg PUBLIC "-//W3C//DTD SVG 1.1//EN" "http://www.w3.org/Graphics/SVG/1.1/DTD/svg11.dtd">
<svg xmlns="http://www.w3.org/2000/svg" version="1.1" width="33px" height="74px" style="shape-rendering:geometricPrecision; text-rendering:geometricPrecision; image-rendering:optimizeQuality; fill-rule:evenodd; clip-rule:evenodd" xmlns:xlink="http://www.w3.org/1999/xlink">
<g><path style="opacity:0.243" fill="#a30f00" d="M -0.5,-0.5 C 10.5,-0.5 21.5,-0.5 32.5,-0.5C 32.5,24.1667 32.5,48.8333 32.5,73.5C 21.5,73.5 10.5,73.5 -0.5,73.5C -0.5,48.8333 -0.5,24.1667 -0.5,-0.5 Z"/></g>
<g><path style="opacity:1" fill="#bd0000" d="M 0.5,0.5 C 10.8333,0.5 21.1667,0.5 31.5,0.5C 31.5,24.5 31.5,48.5 31.5,72.5C 21.1667,72.5 10.8333,72.5 0.5,72.5C 0.5,48.5 0.5,24.5 0.5,0.5 Z"/></g>
<g><path style="opacity:1" fill="#313030" d="M 27.5,66.5 C 25.9731,66.573 24.9731,65.9063 24.5,64.5C 25.6623,45.6711 25.8289,26.6711 25,7.5C 24.3292,8.25244 23.4959,8.58577 22.5,8.5C 17.8333,8.5 13.1667,8.5 8.5,8.5C 7.67318,14.4065 9.33985,19.4065 13.5,23.5C 12.1112,29.7423 10.6112,29.409 9,22.5C 7.87571,27.8705 9.70904,31.8705 14.5,34.5C 14.313,36.5643 13.813,38.5643 13,40.5C 10.6073,38.3812 9.27393,35.7145 9,32.5C 8.1816,35.2272 8.34827,37.8938 9.5,40.5C 14.1772,43.4891 15.6772,47.4891 14,52.5C 11.3195,50.4733 9.65279,47.8066 9,44.5C 8.18003,51.0137 8.3467,57.3471 9.5,63.5C 8.40191,64.397 8.40191,65.2303 9.5,66C 15.8558,68.9265 22.5224,70.0932 29.5,69.5C 29.5,69.8333 29.5,70.1667 29.5,70.5C 20.3178,70.8266 11.3178,70.4933 2.5,69.5C 3.27187,68.3065 4.27187,67.3065 5.5,66.5C 6.49712,46.6736 6.83045,26.6736 6.5,6.5C 13.5,6.5 20.5,6.5 27.5,6.5C 27.5,26.5 27.5,46.5 27.5,66.5 Z"/></g>
<g><path style="opacity:1" fill="#42090a" d="M 2.5,3.5 C 11.6517,2.50644 20.985,2.17311 30.5,2.5C 30.8308,25.3395 30.4975,48.0061 29.5,70.5C 29.5,70.1667 29.5,69.8333 29.5,69.5C 29.5,47.5 29.5,25.5 29.5,3.5C 20.5,3.5 11.5,3.5 2.5,3.5 Z"/></g>
<g><path style="opacity:1" fill="#141414" d="M 2.5,3.5 C 11.5,3.5 20.5,3.5 29.5,3.5C 29.5,25.5 29.5,47.5 29.5,69.5C 22.5224,70.0932 15.8558,68.9265 9.5,66C 8.40191,65.2303 8.40191,64.397 9.5,63.5C 11.4352,62.8505 13.4352,62.5172 15.5,62.5C 15.8269,52.985 15.4936,43.6517 14.5,34.5C 15.2411,31.5867 15.7411,28.5867 16,25.5C 16.4998,35.1609 16.6665,44.8276 16.5,54.5C 15.007,61.2955 17.6736,64.6288 24.5,64.5C 24.9731,65.9063 25.9731,66.573 27.5,66.5C 28.4992,46.9094 28.8325,26.5761 28.5,5.5C 20.8333,5.5 13.1667,5.5 5.5,5.5C 5.5,25.8333 5.5,46.1667 5.5,66.5C 4.27187,67.3065 3.27187,68.3065 2.5,69.5C 2.5,47.5 2.5,25.5 2.5,3.5 Z"/></g>
<g><path style="opacity:1" fill="#212121" d="M 27.5,66.5 C 27.5,46.5 27.5,26.5 27.5,6.5C 20.5,6.5 13.5,6.5 6.5,6.5C 6.83045,26.6736 6.49712,46.6736 5.5,66.5C 5.5,46.1667 5.5,25.8333 5.5,5.5C 13.1667,5.5 20.8333,5.5 28.5,5.5C 28.8325,26.5761 28.4992,46.9094 27.5,66.5 Z"/></g>
<g><path style="opacity:1" fill="#3b3b38" d="M 22.5,8.5 C 20.5018,9.14751 18.5018,9.98084 16.5,11C 17.7683,13.1407 18.4349,15.4741 18.5,18C 18.0393,20.1993 17.8727,22.3659 18,24.5C 19.5095,22.7923 21.0095,21.1256 22.5,19.5C 23.8437,25.0012 22.177,29.5012 17.5,33C 19.745,32.8047 21.5784,31.6381 23,29.5C 23.6667,31.5 23.6667,33.5 23,35.5C 21.7331,38.2746 20.2331,40.9413 18.5,43.5C 18.6667,43.8333 18.8333,44.1667 19,44.5C 23.077,38.7942 24.4103,39.4609 23,46.5C 21.7541,49.9128 19.5874,52.5795 16.5,54.5C 16.6665,44.8276 16.4998,35.1609 16,25.5C 15.7411,28.5867 15.2411,31.5867 14.5,34.5C 9.70904,31.8705 7.87571,27.8705 9,22.5C 10.6112,29.409 12.1112,29.7423 13.5,23.5C 9.33985,19.4065 7.67318,14.4065 8.5,8.5C 13.1667,8.5 17.8333,8.5 22.5,8.5 Z"/></g>
<g><path style="opacity:1" fill="#5b5b5b" d="M 24.5,64.5 C 17.6736,64.6288 15.007,61.2955 16.5,54.5C 19.5874,52.5795 21.7541,49.9128 23,46.5C 24.4103,39.4609 23.077,38.7942 19,44.5C 18.8333,44.1667 18.6667,43.8333 18.5,43.5C 20.2331,40.9413 21.7331,38.2746 23,35.5C 23.6667,33.5 23.6667,31.5 23,29.5C 21.5784,31.6381 19.745,32.8047 17.5,33C 22.177,29.5012 23.8437,25.0012 22.5,19.5C 21.0095,21.1256 19.5095,22.7923 18,24.5C 17.8727,22.3659 18.0393,20.1993 18.5,18C 18.4349,15.4741 17.7683,13.1407 16.5,11C 18.5018,9.98084 20.5018,9.14751 22.5,8.5C 23.4959,8.58577 24.3292,8.25244 25,7.5C 25.8289,26.6711 25.6623,45.6711 24.5,64.5 Z"/></g>
<g><path style="opacity:1" fill="#454443" d="M 14.5,34.5 C 15.4936,43.6517 15.8269,52.985 15.5,62.5C 13.4352,62.5172 11.4352,62.8505 9.5,63.5C 8.3467,57.3471 8.18003,51.0137 9,44.5C 9.65279,47.8066 11.3195,50.4733 14,52.5C 15.6772,47.4891 14.1772,43.4891 9.5,40.5C 8.34827,37.8938 8.1816,35.2272 9,32.5C 9.27393,35.7145 10.6073,38.3812 13,40.5C 13.813,38.5643 14.313,36.5643 14.5,34.5 Z"/></g>
</svg>
