<?xml version="1.0" encoding="UTF-8"?>
<svg xmlns="http://www.w3.org/2000/svg" xmlns:xlink="http://www.w3.org/1999/xlink" width="px" height="px" viewBox="0 0 35 37" version="1.1">
<defs>
<filter id="alpha" filterUnits="objectBoundingBox" x="0%" y="0%" width="100%" height="100%">
  <feColorMatrix type="matrix" in="SourceGraphic" values="0 0 0 0 1 0 0 0 0 1 0 0 0 0 1 0 0 0 1 0"/>
</filter>
<mask id="mask0">
  <g filter="url(#alpha)">
<rect x="0" y="0" width="35" height="37" style="fill:rgb(0%,0%,0%);fill-opacity:0.901961;stroke:none;"/>
  </g>
</mask>
<clipPath id="clip1">
  <rect x="0" y="0" width="35" height="37"/>
</clipPath>
<g id="surface5" clip-path="url(#clip1)">
<path style=" stroke:none;fill-rule:evenodd;fill:rgb(71.764706%,2.745098%,0%);fill-opacity:1;" d="M -0.253906 -0.25 C 11.414062 -0.25 23.078125 -0.25 34.746094 -0.25 C 34.746094 12.082031 34.746094 24.417969 34.746094 36.75 C 23.078125 36.75 11.414062 36.75 -0.253906 36.75 C -0.253906 24.417969 -0.253906 12.082031 -0.253906 -0.25 Z M -0.253906 -0.25 "/>
</g>
</defs>
<g id="surface1">
<use xlink:href="#surface5" mask="url(#mask0)"/>
<path style=" stroke:none;fill-rule:evenodd;fill:rgb(27.058824%,6.666667%,7.058824%);fill-opacity:1;" d="M 32.71875 1.75 C 28.152344 1.75 23.585938 1.75 19.023438 1.75 C 19.183594 4.015625 19.015625 6.183594 18.515625 8.25 C 18.515625 5.917969 18.515625 3.582031 18.515625 1.25 C 23.339844 1.085938 28.074219 1.253906 32.71875 1.75 Z M 32.71875 1.75 "/>
<path style=" stroke:none;fill-rule:evenodd;fill:rgb(29.803922%,2.745098%,2.745098%);fill-opacity:1;" d="M 15.472656 1.75 C 10.90625 1.75 6.339844 1.75 1.773438 1.75 C 1.773438 12.582031 1.773438 23.417969 1.773438 34.25 C 1.773438 34.582031 1.773438 34.917969 1.773438 35.25 C 1.269531 24.003906 1.101562 12.667969 1.269531 1.25 C 6.09375 1.085938 10.828125 1.253906 15.472656 1.75 Z M 15.472656 1.75 "/>
<path style=" stroke:none;fill-rule:evenodd;fill:rgb(8.627451%,7.45098%,7.45098%);fill-opacity:1;" d="M 15.472656 1.75 C 15.472656 3.917969 15.472656 6.082031 15.472656 8.25 C 16.484375 8.25 17.5 8.25 18.515625 8.25 C 19.015625 6.183594 19.183594 4.015625 19.023438 1.75 C 23.585938 1.75 28.152344 1.75 32.71875 1.75 C 32.71875 12.75 32.71875 23.75 32.71875 34.75 C 29.515625 34.972656 26.386719 34.636719 23.332031 33.75 C 22.667969 33.433594 22.246094 32.933594 22.066406 32.25 C 23.25 31.480469 24.605469 31.148438 26.125 31.25 C 27.308594 31.582031 28.492188 31.917969 29.675781 32.25 C 29.847656 32.667969 30.183594 32.835938 30.6875 32.75 C 30.832031 33.144531 31.085938 33.476562 31.449219 33.75 C 31.703125 23.417969 31.789062 13.085938 31.703125 2.75 C 27.8125 2.75 23.925781 2.75 20.035156 2.75 C 20.121094 13.085938 20.035156 23.417969 19.78125 33.75 C 19.613281 33.917969 19.445312 34.082031 19.273438 34.25 C 19.1875 31.992188 18.933594 29.824219 18.515625 27.75 C 17.5 27.75 16.484375 27.75 15.472656 27.75 C 15.472656 30.082031 15.472656 32.417969 15.472656 34.75 C 11.542969 35.230469 7.992188 34.398438 4.820312 32.25 C 6.054688 31.472656 7.40625 31.140625 8.875 31.25 C 10.058594 31.582031 11.242188 31.917969 12.425781 32.25 C 12.769531 32.632812 13.191406 32.96875 13.695312 33.25 C 13.949219 23.25 14.035156 13.25 13.949219 3.25 C 10.398438 3.25 6.847656 3.25 3.296875 3.25 C 3.382812 13.25 3.296875 23.25 3.042969 33.25 C 2.683594 33.691406 2.261719 34.023438 1.773438 34.25 C 1.773438 23.417969 1.773438 12.582031 1.773438 1.75 C 6.339844 1.75 10.90625 1.75 15.472656 1.75 Z M 15.472656 1.75 "/>
<path style=" stroke:none;fill-rule:evenodd;fill:rgb(18.431373%,16.862745%,16.470588%);fill-opacity:1;" d="M 30.6875 32.75 C 30.6875 23.082031 30.6875 13.417969 30.6875 3.75 C 27.472656 3.667969 24.257812 3.75 21.050781 4 C 21.386719 13.464844 21.722656 22.882812 22.066406 32.25 C 22.246094 32.933594 22.667969 33.433594 23.332031 33.75 C 26.386719 34.636719 29.515625 34.972656 32.71875 34.75 C 28.074219 35.246094 23.339844 35.414062 18.515625 35.25 C 18.515625 32.75 18.515625 30.25 18.515625 27.75 C 18.933594 29.824219 19.1875 31.992188 19.273438 34.25 C 19.445312 34.082031 19.613281 33.917969 19.78125 33.75 C 20.035156 23.417969 20.121094 13.085938 20.035156 2.75 C 23.925781 2.75 27.8125 2.75 31.703125 2.75 C 31.789062 13.085938 31.703125 23.417969 31.449219 33.75 C 31.085938 33.476562 30.832031 33.144531 30.6875 32.75 Z M 30.6875 32.75 "/>
<path style=" stroke:none;fill-rule:evenodd;fill:rgb(72.54902%,0%,0%);fill-opacity:1;" d="M 15.472656 11.75 C 16.484375 11.75 17.5 11.75 18.515625 11.75 C 18.515625 15.75 18.515625 19.75 18.515625 23.75 C 17.5 23.75 16.484375 23.75 15.472656 23.75 C 15.472656 19.75 15.472656 15.75 15.472656 11.75 Z M 15.472656 11.75 "/>
<path style=" stroke:none;fill-rule:evenodd;fill:rgb(20.784314%,20.392157%,20%);fill-opacity:1;" d="M 12.425781 32.25 C 12.933594 23.003906 13.101562 13.671875 12.933594 4.25 C 12.425781 4.25 11.921875 4.25 11.414062 4.25 C 9.214844 4.25 7.015625 4.25 4.820312 4.25 C 4.734375 5.925781 4.820312 7.589844 5.074219 9.25 C 6.109375 10.105469 6.953125 11.105469 7.609375 12.25 C 7.671875 11.183594 7.589844 10.101562 7.355469 9 C 7.375 8.015625 7.628906 7.097656 8.117188 6.25 C 8.207031 8.34375 8.457031 10.34375 8.875 12.25 C 8.84375 12.46875 8.929688 12.636719 9.128906 12.75 C 9.785156 11.605469 10.628906 10.605469 11.667969 9.75 C 12.003906 10.917969 12.003906 12.082031 11.667969 13.25 C 10.898438 14.339844 10.136719 15.421875 9.382812 16.5 C 9.46875 16.75 9.554688 17 9.636719 17.25 C 11.796875 14.589844 12.472656 15.089844 11.667969 18.75 C 10.898438 19.839844 10.136719 20.921875 9.382812 22 C 9.46875 22.25 9.554688 22.5 9.636719 22.75 C 10.113281 21.96875 10.707031 21.300781 11.414062 20.75 C 12.332031 23.449219 11.570312 25.613281 9.128906 27.25 C 8.878906 28.574219 8.792969 29.90625 8.875 31.25 C 7.40625 31.140625 6.054688 31.472656 4.820312 32.25 C 7.992188 34.398438 11.542969 35.230469 15.472656 34.75 C 11 35.246094 6.433594 35.414062 1.773438 35.25 C 1.773438 34.917969 1.773438 34.582031 1.773438 34.25 C 2.261719 34.023438 2.683594 33.691406 3.042969 33.25 C 3.296875 23.25 3.382812 13.25 3.296875 3.25 C 6.847656 3.25 10.398438 3.25 13.949219 3.25 C 14.035156 13.25 13.949219 23.25 13.695312 33.25 C 13.191406 32.96875 12.769531 32.632812 12.425781 32.25 Z M 12.425781 32.25 "/>
<path style=" stroke:none;fill-rule:evenodd;fill:rgb(34.901961%,34.901961%,34.901961%);fill-opacity:1;" d="M 11.414062 4.25 C 11.921875 4.25 12.425781 4.25 12.933594 4.25 C 13.101562 13.671875 12.933594 23.003906 12.425781 32.25 C 11.242188 31.917969 10.058594 31.582031 8.875 31.25 C 8.792969 29.90625 8.878906 28.574219 9.128906 27.25 C 11.570312 25.613281 12.332031 23.449219 11.414062 20.75 C 10.707031 21.300781 10.113281 21.96875 9.636719 22.75 C 9.554688 22.5 9.46875 22.25 9.382812 22 C 10.136719 20.921875 10.898438 19.839844 11.667969 18.75 C 12.472656 15.089844 11.796875 14.589844 9.636719 17.25 C 9.554688 17 9.46875 16.75 9.382812 16.5 C 10.136719 15.421875 10.898438 14.339844 11.667969 13.25 C 12.003906 12.082031 12.003906 10.917969 11.667969 9.75 C 10.628906 10.605469 9.785156 11.605469 9.128906 12.75 C 8.929688 12.636719 8.84375 12.46875 8.875 12.25 C 10.171875 10.082031 10.171875 7.917969 8.875 5.75 C 9.710938 5.152344 10.554688 4.652344 11.414062 4.25 Z M 11.414062 4.25 "/>
<path style=" stroke:none;fill-rule:evenodd;fill:rgb(27.058824%,27.058824%,26.666667%);fill-opacity:1;" d="M 11.414062 4.25 C 10.554688 4.652344 9.710938 5.152344 8.875 5.75 C 10.171875 7.917969 10.171875 10.082031 8.875 12.25 C 8.457031 10.34375 8.207031 8.34375 8.117188 6.25 C 7.628906 7.097656 7.375 8.015625 7.355469 9 C 7.589844 10.101562 7.671875 11.183594 7.609375 12.25 C 6.953125 11.105469 6.109375 10.105469 5.074219 9.25 C 4.820312 7.589844 4.734375 5.925781 4.820312 4.25 C 7.015625 4.25 9.214844 4.25 11.414062 4.25 Z M 11.414062 4.25 "/>
<path style=" stroke:none;fill-rule:evenodd;fill:rgb(22.745098%,22.352941%,21.568627%);fill-opacity:1;" d="M 30.6875 32.75 C 30.183594 32.835938 29.847656 32.667969 29.675781 32.25 C 30.179688 23.003906 30.347656 13.671875 30.179688 4.25 C 28.671875 4.355469 27.320312 4.855469 26.125 5.75 C 26.613281 6.785156 26.953125 7.871094 27.136719 9 C 26.757812 10.273438 26.503906 11.523438 26.375 12.75 C 27.03125 11.605469 27.875 10.605469 28.914062 9.75 C 29.25 10.917969 29.25 12.082031 28.914062 13.25 C 28.144531 14.339844 27.382812 15.421875 26.628906 16.5 C 26.714844 16.75 26.800781 17 26.882812 17.25 C 29.042969 14.589844 29.722656 15.089844 28.914062 18.75 C 28.144531 19.839844 27.382812 20.921875 26.628906 22 C 26.714844 22.25 26.800781 22.5 26.882812 22.75 C 27.363281 21.96875 27.953125 21.300781 28.660156 20.75 C 29.578125 23.449219 28.816406 25.613281 26.375 27.25 C 26.125 28.574219 26.039062 29.90625 26.125 31.25 C 24.605469 31.148438 23.25 31.480469 22.066406 32.25 C 21.722656 22.882812 21.386719 13.464844 21.050781 4 C 24.257812 3.75 27.472656 3.667969 30.6875 3.75 C 30.6875 13.417969 30.6875 23.082031 30.6875 32.75 Z M 30.6875 32.75 "/>
<path style=" stroke:none;fill-rule:evenodd;fill:rgb(34.901961%,34.901961%,34.901961%);fill-opacity:1;" d="M 29.675781 32.25 C 28.492188 31.917969 27.308594 31.582031 26.125 31.25 C 26.039062 29.90625 26.125 28.574219 26.375 27.25 C 28.816406 25.613281 29.578125 23.449219 28.660156 20.75 C 27.953125 21.300781 27.363281 21.96875 26.882812 22.75 C 26.800781 22.5 26.714844 22.25 26.628906 22 C 27.382812 20.921875 28.144531 19.839844 28.914062 18.75 C 29.722656 15.089844 29.042969 14.589844 26.882812 17.25 C 26.800781 17 26.714844 16.75 26.628906 16.5 C 27.382812 15.421875 28.144531 14.339844 28.914062 13.25 C 29.25 12.082031 29.25 10.917969 28.914062 9.75 C 27.875 10.605469 27.03125 11.605469 26.375 12.75 C 26.503906 11.523438 26.757812 10.273438 27.136719 9 C 26.953125 7.871094 26.613281 6.785156 26.125 5.75 C 27.320312 4.855469 28.671875 4.355469 30.179688 4.25 C 30.347656 13.671875 30.179688 23.003906 29.675781 32.25 Z M 29.675781 32.25 "/>
</g>
</svg>
