<?xml version="1.0" encoding="UTF-8"?>
<svg xmlns="http://www.w3.org/2000/svg" xmlns:xlink="http://www.w3.org/1999/xlink" width="33px" height="74px" viewBox="0 0 17 38" version="1.1">
<defs>
<filter id="alpha" filterUnits="objectBoundingBox" x="0%" y="0%" width="100%" height="100%">
  <feColorMatrix type="matrix" in="SourceGraphic" values="0 0 0 0 1 0 0 0 0 1 0 0 0 0 1 0 0 0 1 0"/>
</filter>
<mask id="mask0">
  <g filter="url(#alpha)">
<rect x="0" y="0" width="17" height="38" style="fill:rgb(0%,0%,0%);fill-opacity:0.243137;stroke:none;"/>
  </g>
</mask>
<clipPath id="clip1">
  <rect x="0" y="0" width="17" height="38"/>
</clipPath>
<g id="surface5" clip-path="url(#clip1)">
<path style=" stroke:none;fill-rule:evenodd;fill:rgb(63.921569%,5.882353%,0%);fill-opacity:1;" d="M -0.257812 -0.257812 C 5.410156 -0.257812 11.074219 -0.257812 16.742188 -0.257812 C 16.742188 12.410156 16.742188 25.078125 16.742188 37.742188 C 11.074219 37.742188 5.410156 37.742188 -0.257812 37.742188 C -0.257812 25.078125 -0.257812 12.410156 -0.257812 -0.257812 Z M -0.257812 -0.257812 "/>
</g>
</defs>
<g id="surface1">
<use xlink:href="#surface5" mask="url(#mask0)"/>
<path style=" stroke:none;fill-rule:evenodd;fill:rgb(74.117647%,0%,0%);fill-opacity:1;" d="M 0.257812 0.257812 C 5.582031 0.257812 10.902344 0.257812 16.226562 0.257812 C 16.226562 12.582031 16.226562 24.90625 16.226562 37.230469 C 10.902344 37.230469 5.582031 37.230469 0.257812 37.230469 C 0.257812 24.90625 0.257812 12.582031 0.257812 0.257812 Z M 0.257812 0.257812 "/>
<path style=" stroke:none;fill-rule:evenodd;fill:rgb(19.215686%,18.823529%,18.823529%);fill-opacity:1;" d="M 14.167969 34.148438 C 13.378906 34.1875 12.863281 33.84375 12.621094 33.121094 C 13.21875 23.453125 13.304688 13.695312 12.878906 3.851562 C 12.535156 4.238281 12.105469 4.410156 11.589844 4.363281 C 9.1875 4.363281 6.78125 4.363281 4.378906 4.363281 C 3.953125 7.398438 4.8125 9.964844 6.953125 12.066406 C 6.238281 15.273438 5.464844 15.101562 4.636719 11.554688 C 4.058594 14.3125 5 16.367188 7.46875 17.714844 C 7.375 18.777344 7.117188 19.804688 6.695312 20.796875 C 5.464844 19.710938 4.777344 18.339844 4.636719 16.6875 C 4.214844 18.089844 4.300781 19.457031 4.894531 20.796875 C 7.304688 22.332031 8.074219 24.386719 7.210938 26.960938 C 5.832031 25.917969 4.972656 24.550781 4.636719 22.851562 C 4.214844 26.195312 4.300781 29.449219 4.894531 32.609375 C 4.328125 33.070312 4.328125 33.496094 4.894531 33.890625 C 8.167969 35.394531 11.601562 35.992188 15.195312 35.6875 C 15.195312 35.859375 15.195312 36.03125 15.195312 36.203125 C 10.464844 36.371094 5.832031 36.199219 1.289062 35.6875 C 1.683594 35.078125 2.199219 34.5625 2.832031 34.148438 C 3.347656 23.96875 3.519531 13.695312 3.347656 3.335938 C 6.953125 3.335938 10.5625 3.335938 14.167969 3.335938 C 14.167969 13.609375 14.167969 23.878906 14.167969 34.148438 Z M 14.167969 34.148438 "/>
<path style=" stroke:none;fill-rule:evenodd;fill:rgb(25.882353%,3.529412%,3.921569%);fill-opacity:1;" d="M 1.289062 1.796875 C 6.003906 1.285156 10.808594 1.117188 15.710938 1.285156 C 15.882812 13.011719 15.710938 24.652344 15.195312 36.203125 C 15.195312 36.03125 15.195312 35.859375 15.195312 35.6875 C 15.195312 24.390625 15.195312 13.09375 15.195312 1.796875 C 10.5625 1.796875 5.925781 1.796875 1.289062 1.796875 Z M 1.289062 1.796875 "/>
<path style=" stroke:none;fill-rule:evenodd;fill:rgb(7.843137%,7.843137%,7.843137%);fill-opacity:1;" d="M 1.289062 1.796875 C 5.925781 1.796875 10.5625 1.796875 15.195312 1.796875 C 15.195312 13.09375 15.195312 24.390625 15.195312 35.6875 C 11.601562 35.992188 8.167969 35.394531 4.894531 33.890625 C 4.328125 33.496094 4.328125 33.070312 4.894531 32.609375 C 5.890625 32.273438 6.921875 32.101562 7.984375 32.09375 C 8.152344 27.207031 7.980469 22.414062 7.46875 17.714844 C 7.851562 16.21875 8.109375 14.679688 8.242188 13.09375 C 8.5 18.054688 8.585938 23.019531 8.5 27.988281 C 7.730469 31.476562 9.105469 33.1875 12.621094 33.121094 C 12.863281 33.84375 13.378906 34.1875 14.167969 34.148438 C 14.679688 24.089844 14.851562 13.648438 14.683594 2.824219 C 10.730469 2.824219 6.78125 2.824219 2.832031 2.824219 C 2.832031 13.265625 2.832031 23.707031 2.832031 34.148438 C 2.199219 34.5625 1.683594 35.078125 1.289062 35.6875 C 1.289062 24.390625 1.289062 13.09375 1.289062 1.796875 Z M 1.289062 1.796875 "/>
<path style=" stroke:none;fill-rule:evenodd;fill:rgb(12.941176%,12.941176%,12.941176%);fill-opacity:1;" d="M 14.167969 34.148438 C 14.167969 23.878906 14.167969 13.609375 14.167969 3.335938 C 10.5625 3.335938 6.953125 3.335938 3.347656 3.335938 C 3.519531 13.695312 3.347656 23.96875 2.832031 34.148438 C 2.832031 23.707031 2.832031 13.265625 2.832031 2.824219 C 6.78125 2.824219 10.730469 2.824219 14.683594 2.824219 C 14.851562 13.648438 14.679688 24.089844 14.167969 34.148438 Z M 14.167969 34.148438 "/>
<path style=" stroke:none;fill-rule:evenodd;fill:rgb(23.137255%,23.137255%,21.960784%);fill-opacity:1;" d="M 11.589844 4.363281 C 10.5625 4.699219 9.53125 5.125 8.5 5.648438 C 9.152344 6.746094 9.496094 7.945312 9.53125 9.242188 C 9.292969 10.371094 9.207031 11.484375 9.273438 12.582031 C 10.050781 11.703125 10.824219 10.847656 11.589844 10.011719 C 12.28125 12.839844 11.425781 15.148438 9.015625 16.945312 C 10.171875 16.84375 11.117188 16.246094 11.847656 15.148438 C 12.191406 16.175781 12.191406 17.203125 11.847656 18.230469 C 11.195312 19.65625 10.421875 21.023438 9.53125 22.335938 C 9.617188 22.507812 9.703125 22.679688 9.789062 22.851562 C 11.886719 19.921875 12.574219 20.265625 11.847656 23.878906 C 11.207031 25.632812 10.089844 27 8.5 27.988281 C 8.585938 23.019531 8.5 18.054688 8.242188 13.09375 C 8.109375 14.679688 7.851562 16.21875 7.46875 17.714844 C 5 16.367188 4.058594 14.3125 4.636719 11.554688 C 5.464844 15.101562 6.238281 15.273438 6.953125 12.066406 C 4.8125 9.964844 3.953125 7.398438 4.378906 4.363281 C 6.78125 4.363281 9.1875 4.363281 11.589844 4.363281 Z M 11.589844 4.363281 "/>
<path style=" stroke:none;fill-rule:evenodd;fill:rgb(35.686275%,35.686275%,35.686275%);fill-opacity:1;" d="M 12.621094 33.121094 C 9.105469 33.1875 7.730469 31.476562 8.5 27.988281 C 10.089844 27 11.207031 25.632812 11.847656 23.878906 C 12.574219 20.265625 11.886719 19.921875 9.789062 22.851562 C 9.703125 22.679688 9.617188 22.507812 9.53125 22.335938 C 10.421875 21.023438 11.195312 19.65625 11.847656 18.230469 C 12.191406 17.203125 12.191406 16.175781 11.847656 15.148438 C 11.117188 16.246094 10.171875 16.84375 9.015625 16.945312 C 11.425781 15.148438 12.28125 12.839844 11.589844 10.011719 C 10.824219 10.847656 10.050781 11.703125 9.273438 12.582031 C 9.207031 11.484375 9.292969 10.371094 9.53125 9.242188 C 9.496094 7.945312 9.152344 6.746094 8.5 5.648438 C 9.53125 5.125 10.5625 4.699219 11.589844 4.363281 C 12.105469 4.410156 12.535156 4.238281 12.878906 3.851562 C 13.304688 13.695312 13.21875 23.453125 12.621094 33.121094 Z M 12.621094 33.121094 "/>
<path style=" stroke:none;fill-rule:evenodd;fill:rgb(27.058824%,26.666667%,26.27451%);fill-opacity:1;" d="M 7.46875 17.714844 C 7.980469 22.414062 8.152344 27.207031 7.984375 32.09375 C 6.921875 32.101562 5.890625 32.273438 4.894531 32.609375 C 4.300781 29.449219 4.214844 26.195312 4.636719 22.851562 C 4.972656 24.550781 5.832031 25.917969 7.210938 26.960938 C 8.074219 24.386719 7.304688 22.332031 4.894531 20.796875 C 4.300781 19.457031 4.214844 18.089844 4.636719 16.6875 C 4.777344 18.339844 5.464844 19.710938 6.695312 20.796875 C 7.117188 19.804688 7.375 18.777344 7.46875 17.714844 Z M 7.46875 17.714844 "/>
</g>
</svg>
