<?xml version="1.0" encoding="UTF-8"?>
<!DOCTYPE svg PUBLIC "-//W3C//DTD SVG 1.1//EN" "http://www.w3.org/Graphics/SVG/1.1/DTD/svg11.dtd">
<svg xmlns="http://www.w3.org/2000/svg" version="1.1" width="69px" height="74px" style="shape-rendering:geometricPrecision; text-rendering:geometricPrecision; image-rendering:optimizeQuality; fill-rule:evenodd; clip-rule:evenodd" xmlns:xlink="http://www.w3.org/1999/xlink">
<g><path style="opacity:0.903" fill="#b70700" d="M -0.5,-0.5 C 22.5,-0.5 45.5,-0.5 68.5,-0.5C 68.5,24.1667 68.5,48.8333 68.5,73.5C 45.5,73.5 22.5,73.5 -0.5,73.5C -0.5,48.8333 -0.5,24.1667 -0.5,-0.5 Z"/></g>
<g><path style="opacity:1" fill="#451112" d="M 64.5,3.5 C 55.5,3.5 46.5,3.5 37.5,3.5C 37.8182,8.03225 37.4849,12.3656 36.5,16.5C 36.5,11.8333 36.5,7.16667 36.5,2.5C 46.015,2.17311 55.3483,2.50644 64.5,3.5 Z"/></g>
<g><path style="opacity:1" fill="#4c0707" d="M 30.5,3.5 C 21.5,3.5 12.5,3.5 3.5,3.5C 3.5,25.1667 3.5,46.8333 3.5,68.5C 3.5,69.1667 3.5,69.8333 3.5,70.5C 2.50253,48.0061 2.1692,25.3395 2.5,2.5C 12.015,2.17311 21.3483,2.50644 30.5,3.5 Z"/></g>
<g><path style="opacity:1" fill="#161313" d="M 30.5,3.5 C 30.5,7.83333 30.5,12.1667 30.5,16.5C 32.5,16.5 34.5,16.5 36.5,16.5C 37.4849,12.3656 37.8182,8.03225 37.5,3.5C 46.5,3.5 55.5,3.5 64.5,3.5C 64.5,25.5 64.5,47.5 64.5,69.5C 58.19,69.943 52.0233,69.2763 46,67.5C 44.6898,66.8699 43.8565,65.8699 43.5,64.5C 45.8383,62.9605 48.5049,62.2938 51.5,62.5C 53.8333,63.1667 56.1667,63.8333 58.5,64.5C 58.8417,65.3382 59.5084,65.6716 60.5,65.5C 60.7828,66.2891 61.2828,66.9558 62,67.5C 62.5,46.836 62.6666,26.1694 62.5,5.5C 54.8333,5.5 47.1667,5.5 39.5,5.5C 39.6666,26.1694 39.5,46.836 39,67.5C 38.6667,67.8333 38.3333,68.1667 38,68.5C 37.8247,63.9805 37.3247,59.6472 36.5,55.5C 34.5,55.5 32.5,55.5 30.5,55.5C 30.5,60.1667 30.5,64.8333 30.5,69.5C 22.755,70.4641 15.755,68.7974 9.5,64.5C 11.9329,62.9462 14.5995,62.2796 17.5,62.5C 19.8333,63.1667 22.1667,63.8333 24.5,64.5C 25.172,65.2674 26.0053,65.9341 27,66.5C 27.5,46.5028 27.6666,26.5028 27.5,6.5C 20.5,6.5 13.5,6.5 6.5,6.5C 6.66662,26.5028 6.49995,46.5028 6,66.5C 5.2917,67.3805 4.45837,68.0472 3.5,68.5C 3.5,46.8333 3.5,25.1667 3.5,3.5C 12.5,3.5 21.5,3.5 30.5,3.5 Z"/></g>
<g><path style="opacity:1" fill="#2f2b2a" d="M 60.5,65.5 C 60.5,46.1667 60.5,26.8333 60.5,7.5C 54.1579,7.33379 47.8246,7.50046 41.5,8C 42.1608,26.9311 42.8274,45.7645 43.5,64.5C 43.8565,65.8699 44.6898,66.8699 46,67.5C 52.0233,69.2763 58.19,69.943 64.5,69.5C 55.3483,70.4936 46.015,70.8269 36.5,70.5C 36.5,65.5 36.5,60.5 36.5,55.5C 37.3247,59.6472 37.8247,63.9805 38,68.5C 38.3333,68.1667 38.6667,67.8333 39,67.5C 39.5,46.836 39.6666,26.1694 39.5,5.5C 47.1667,5.5 54.8333,5.5 62.5,5.5C 62.6666,26.1694 62.5,46.836 62,67.5C 61.2828,66.9558 60.7828,66.2891 60.5,65.5 Z"/></g>
<g><path style="opacity:1" fill="#b90000" d="M 30.5,23.5 C 32.5,23.5 34.5,23.5 36.5,23.5C 36.5,31.5 36.5,39.5 36.5,47.5C 34.5,47.5 32.5,47.5 30.5,47.5C 30.5,39.5 30.5,31.5 30.5,23.5 Z"/></g>
<g><path style="opacity:1" fill="#353433" d="M 24.5,64.5 C 25.4969,46.0075 25.8302,27.3408 25.5,8.5C 24.5,8.5 23.5,8.5 22.5,8.5C 18.1667,8.5 13.8333,8.5 9.5,8.5C 9.33499,11.8499 9.50166,15.1832 10,18.5C 12.0435,20.208 13.7101,22.208 15,24.5C 15.1273,22.3659 14.9607,20.1993 14.5,18C 14.5419,16.0326 15.0419,14.1992 16,12.5C 16.1762,16.6877 16.6762,20.6877 17.5,24.5C 17.4346,24.9382 17.6012,25.2716 18,25.5C 19.2899,23.208 20.9565,21.208 23,19.5C 23.6667,21.8333 23.6667,24.1667 23,26.5C 21.4851,28.6772 19.9851,30.8439 18.5,33C 18.6667,33.5 18.8333,34 19,34.5C 23.2591,29.1771 24.5925,30.1771 23,37.5C 21.4851,39.6772 19.9851,41.8439 18.5,44C 18.6667,44.5 18.8333,45 19,45.5C 19.941,43.9386 21.1076,42.6053 22.5,41.5C 24.3087,46.8957 22.8087,51.2291 18,54.5C 17.5026,57.146 17.3359,59.8127 17.5,62.5C 14.5995,62.2796 11.9329,62.9462 9.5,64.5C 15.755,68.7974 22.755,70.4641 30.5,69.5C 21.6822,70.4933 12.6822,70.8266 3.5,70.5C 3.5,69.8333 3.5,69.1667 3.5,68.5C 4.45837,68.0472 5.2917,67.3805 6,66.5C 6.49995,46.5028 6.66662,26.5028 6.5,6.5C 13.5,6.5 20.5,6.5 27.5,6.5C 27.6666,26.5028 27.5,46.5028 27,66.5C 26.0053,65.9341 25.172,65.2674 24.5,64.5 Z"/></g>
<g><path style="opacity:1" fill="#595959" d="M 22.5,8.5 C 23.5,8.5 24.5,8.5 25.5,8.5C 25.8302,27.3408 25.4969,46.0075 24.5,64.5C 22.1667,63.8333 19.8333,63.1667 17.5,62.5C 17.3359,59.8127 17.5026,57.146 18,54.5C 22.8087,51.2291 24.3087,46.8957 22.5,41.5C 21.1076,42.6053 19.941,43.9386 19,45.5C 18.8333,45 18.6667,44.5 18.5,44C 19.9851,41.8439 21.4851,39.6772 23,37.5C 24.5925,30.1771 23.2591,29.1771 19,34.5C 18.8333,34 18.6667,33.5 18.5,33C 19.9851,30.8439 21.4851,28.6772 23,26.5C 23.6667,24.1667 23.6667,21.8333 23,19.5C 20.9565,21.208 19.2899,23.208 18,25.5C 17.6012,25.2716 17.4346,24.9382 17.5,24.5C 20.0554,20.1672 20.0554,15.8339 17.5,11.5C 19.1446,10.3037 20.8113,9.30374 22.5,8.5 Z"/></g>
<g><path style="opacity:1" fill="#454544" d="M 22.5,8.5 C 20.8113,9.30374 19.1446,10.3037 17.5,11.5C 20.0554,15.8339 20.0554,20.1672 17.5,24.5C 16.6762,20.6877 16.1762,16.6877 16,12.5C 15.0419,14.1992 14.5419,16.0326 14.5,18C 14.9607,20.1993 15.1273,22.3659 15,24.5C 13.7101,22.208 12.0435,20.208 10,18.5C 9.50166,15.1832 9.33499,11.8499 9.5,8.5C 13.8333,8.5 18.1667,8.5 22.5,8.5 Z"/></g>
<g><path style="opacity:1" fill="#3a3937" d="M 60.5,65.5 C 59.5084,65.6716 58.8417,65.3382 58.5,64.5C 59.4969,46.0075 59.8302,27.3408 59.5,8.5C 56.525,8.71341 53.8584,9.71341 51.5,11.5C 52.4687,13.5728 53.1354,15.7395 53.5,18C 52.7508,20.5446 52.2508,23.0446 52,25.5C 53.2899,23.208 54.9565,21.208 57,19.5C 57.6667,21.8333 57.6667,24.1667 57,26.5C 55.4851,28.6772 53.9851,30.8439 52.5,33C 52.6667,33.5 52.8333,34 53,34.5C 57.2591,29.1771 58.5925,30.1771 57,37.5C 55.4851,39.6772 53.9851,41.8439 52.5,44C 52.6667,44.5 52.8333,45 53,45.5C 53.941,43.9386 55.1076,42.6053 56.5,41.5C 58.3087,46.8957 56.8087,51.2291 52,54.5C 51.5026,57.146 51.3359,59.8127 51.5,62.5C 48.5049,62.2938 45.8383,62.9605 43.5,64.5C 42.8274,45.7645 42.1608,26.9311 41.5,8C 47.8246,7.50046 54.1579,7.33379 60.5,7.5C 60.5,26.8333 60.5,46.1667 60.5,65.5 Z"/></g>
<g><path style="opacity:1" fill="#595959" d="M 58.5,64.5 C 56.1667,63.8333 53.8333,63.1667 51.5,62.5C 51.3359,59.8127 51.5026,57.146 52,54.5C 56.8087,51.2291 58.3087,46.8957 56.5,41.5C 55.1076,42.6053 53.941,43.9386 53,45.5C 52.8333,45 52.6667,44.5 52.5,44C 53.9851,41.8439 55.4851,39.6772 57,37.5C 58.5925,30.1771 57.2591,29.1771 53,34.5C 52.8333,34 52.6667,33.5 52.5,33C 53.9851,30.8439 55.4851,28.6772 57,26.5C 57.6667,24.1667 57.6667,21.8333 57,19.5C 54.9565,21.208 53.2899,23.208 52,25.5C 52.2508,23.0446 52.7508,20.5446 53.5,18C 53.1354,15.7395 52.4687,13.5728 51.5,11.5C 53.8584,9.71341 56.525,8.71341 59.5,8.5C 59.8302,27.3408 59.4969,46.0075 58.5,64.5 Z"/></g>
</svg>
