<?xml version="1.0" encoding="UTF-8"?>
<!DOCTYPE svg PUBLIC "-//W3C//DTD SVG 1.1//EN" "http://www.w3.org/Graphics/SVG/1.1/DTD/svg11.dtd">
<svg xmlns="http://www.w3.org/2000/svg" version="1.1" width="159px" height="196px" style="shape-rendering:geometricPrecision; text-rendering:geometricPrecision; image-rendering:optimizeQuality; fill-rule:evenodd; clip-rule:evenodd" xmlns:xlink="http://www.w3.org/1999/xlink">
<g><path style="opacity:1" fill="#fcfcfc" d="M -0.5,-0.5 C 52.5,-0.5 105.5,-0.5 158.5,-0.5C 158.5,64.8333 158.5,130.167 158.5,195.5C 105.5,195.5 52.5,195.5 -0.5,195.5C -0.5,130.167 -0.5,64.8333 -0.5,-0.5 Z"/></g>
<g><path style="opacity:1" fill="#0d0d0f" d="M 148.5,95.5 C 148.831,126.005 148.498,156.338 147.5,186.5C 121.602,176.56 98.2689,162.56 77.5,144.5C 56.5875,162.712 33.0875,176.712 7,186.5C 6.33333,156.167 6.33333,125.833 7,95.5C 29.2547,78.6227 47.588,58.2893 62,34.5C 67.3481,24.4685 72.6814,14.4685 78,4.5C 93.3558,41.2458 116.856,71.5791 148.5,95.5 Z"/></g>
<g><path style="opacity:1" fill="#f7f7f7" d="M 17.5,117.5 C 15.5467,111.926 14.88,105.926 15.5,99.5C 41.8411,78.8307 62.5078,53.4974 77.5,23.5C 92.6405,53.3106 113.307,78.6439 139.5,99.5C 140.664,106.142 140.831,112.808 140,119.5C 115.619,101.952 94.7854,80.9524 77.5,56.5C 60.8805,80.1198 40.8805,100.453 17.5,117.5 Z"/></g>
<g><path style="opacity:1" fill="#f7f7f7" d="M 16.5,146.5 C 15.5111,141.025 15.1778,135.358 15.5,129.5C 39.6183,114.055 60.2849,94.7214 77.5,71.5C 94.6656,94.834 115.499,114.167 140,129.5C 140.667,135.5 140.667,141.5 140,147.5C 116.327,134.321 95.4938,117.655 77.5,97.5C 59.7969,117.213 39.4635,133.546 16.5,146.5 Z"/></g>
<g><path style="opacity:1" fill="#565656" d="M 148.5,95.5 C 149.83,126.003 149.83,156.669 148.5,187.5C 147.893,187.376 147.56,187.043 147.5,186.5C 148.498,156.338 148.831,126.005 148.5,95.5 Z"/></g>
<g><path style="opacity:1" fill="#adadad" d="M 15.5,99.5 C 14.88,105.926 15.5467,111.926 17.5,117.5C 16.791,118.404 15.791,118.737 14.5,118.5C 14.1765,111.978 14.5098,105.645 15.5,99.5 Z"/></g>
<g><path style="opacity:1" fill="#f7f7f8" d="M 17.5,172.5 C 15.5539,167.604 14.8872,162.271 15.5,156.5C 38.6849,144.661 59.3516,129.327 77.5,110.5C 95.4983,129.336 116.165,144.502 139.5,156C 140.475,161.741 140.808,167.575 140.5,173.5C 117.44,163.599 96.6067,150.266 78,133.5C 66.7923,142.371 55.2923,150.871 43.5,159C 35.2513,164.291 26.5846,168.791 17.5,172.5 Z"/></g>
<g><path style="opacity:1" fill="#adadad" d="M 15.5,129.5 C 15.1778,135.358 15.5111,141.025 16.5,146.5C 16.44,147.043 16.1067,147.376 15.5,147.5C 14.1834,141.346 14.1834,135.346 15.5,129.5 Z"/></g>
<g><path style="opacity:1" fill="#b0b0b0" d="M 15.5,156.5 C 14.8872,162.271 15.5539,167.604 17.5,172.5C 16.791,173.404 15.791,173.737 14.5,173.5C 14.1778,167.642 14.5111,161.975 15.5,156.5 Z"/></g>
</svg>
