<?xml version="1.0" encoding="UTF-8"?>
<svg xmlns="http://www.w3.org/2000/svg" xmlns:xlink="http://www.w3.org/1999/xlink" width="px" height="px" viewBox="0 0 80 98" version="1.1">
<g id="surface1">
<path style=" stroke:none;fill-rule:evenodd;fill:rgb(98.823529%,98.823529%,98.823529%);fill-opacity:1;" d="M -0.25 -0.25 C 26.414062 -0.25 53.082031 -0.25 79.75 -0.25 C 79.75 32.417969 79.75 65.082031 79.75 97.75 C 53.082031 97.75 26.414062 97.75 -0.25 97.75 C -0.25 65.082031 -0.25 32.417969 -0.25 -0.25 Z M -0.25 -0.25 "/>
<path style=" stroke:none;fill-rule:evenodd;fill:rgb(5.098039%,5.098039%,5.882353%);fill-opacity:1;" d="M 74.71875 47.75 C 74.882812 63.003906 74.714844 78.167969 74.214844 93.25 C 61.183594 88.28125 49.445312 81.28125 38.992188 72.25 C 28.472656 81.355469 16.648438 88.355469 3.523438 93.25 C 3.1875 78.082031 3.1875 62.917969 3.523438 47.75 C 14.71875 39.3125 23.945312 29.144531 31.195312 17.25 C 33.886719 12.234375 36.570312 7.234375 39.246094 2.25 C 46.972656 20.621094 58.796875 35.789062 74.71875 47.75 Z M 74.71875 47.75 "/>
<path style=" stroke:none;fill-rule:evenodd;fill:rgb(96.862745%,96.862745%,96.862745%);fill-opacity:1;" d="M 8.804688 58.75 C 7.820312 55.964844 7.488281 52.964844 7.796875 49.75 C 21.050781 39.414062 31.449219 26.75 38.992188 11.75 C 46.613281 26.65625 57.011719 39.320312 70.1875 49.75 C 70.773438 53.070312 70.859375 56.402344 70.441406 59.75 C 58.171875 50.976562 47.691406 40.476562 38.992188 28.25 C 30.632812 40.058594 20.570312 50.226562 8.804688 58.75 Z M 8.804688 58.75 "/>
<path style=" stroke:none;fill-rule:evenodd;fill:rgb(96.862745%,96.862745%,96.862745%);fill-opacity:1;" d="M 8.300781 73.25 C 7.804688 70.511719 7.636719 67.679688 7.796875 64.75 C 19.933594 57.027344 30.332031 47.359375 38.992188 35.75 C 47.628906 47.417969 58.113281 57.082031 70.441406 64.75 C 70.777344 67.75 70.777344 70.75 70.441406 73.75 C 58.53125 67.160156 48.046875 58.828125 38.992188 48.75 C 30.085938 58.605469 19.855469 66.773438 8.300781 73.25 Z M 8.300781 73.25 "/>
<path style=" stroke:none;fill-rule:evenodd;fill:rgb(33.72549%,33.72549%,33.72549%);fill-opacity:1;" d="M 74.71875 47.75 C 75.386719 63 75.386719 78.335938 74.71875 93.75 C 74.410156 93.6875 74.242188 93.523438 74.214844 93.25 C 74.714844 78.167969 74.882812 63.003906 74.71875 47.75 Z M 74.71875 47.75 "/>
<path style=" stroke:none;fill-rule:evenodd;fill:rgb(67.843137%,67.843137%,67.843137%);fill-opacity:1;" d="M 7.796875 49.75 C 7.488281 52.964844 7.820312 55.964844 8.804688 58.75 C 8.449219 59.203125 7.945312 59.367188 7.296875 59.25 C 7.132812 55.988281 7.300781 52.824219 7.796875 49.75 Z M 7.796875 49.75 "/>
<path style=" stroke:none;fill-rule:evenodd;fill:rgb(96.862745%,96.862745%,97.254902%);fill-opacity:1;" d="M 8.804688 86.25 C 7.824219 83.800781 7.492188 81.136719 7.796875 78.25 C 19.464844 72.332031 29.863281 64.664062 38.992188 55.25 C 48.050781 64.667969 58.449219 72.25 70.1875 78 C 70.679688 80.871094 70.847656 83.789062 70.691406 86.75 C 59.089844 81.800781 48.605469 75.132812 39.246094 66.75 C 33.605469 71.183594 27.820312 75.433594 21.886719 79.5 C 17.738281 82.144531 13.375 84.394531 8.804688 86.25 Z M 8.804688 86.25 "/>
<path style=" stroke:none;fill-rule:evenodd;fill:rgb(67.843137%,67.843137%,67.843137%);fill-opacity:1;" d="M 7.796875 64.75 C 7.636719 67.679688 7.804688 70.511719 8.300781 73.25 C 8.273438 73.523438 8.105469 73.6875 7.796875 73.75 C 7.136719 70.671875 7.136719 67.671875 7.796875 64.75 Z M 7.796875 64.75 "/>
<path style=" stroke:none;fill-rule:evenodd;fill:rgb(69.019608%,69.019608%,69.019608%);fill-opacity:1;" d="M 7.796875 78.25 C 7.492188 81.136719 7.824219 83.800781 8.804688 86.25 C 8.449219 86.703125 7.945312 86.867188 7.296875 86.75 C 7.132812 83.820312 7.300781 80.988281 7.796875 78.25 Z M 7.796875 78.25 "/>
</g>
</svg>
