<?xml version="1.0" encoding="UTF-8"?>
<svg xmlns="http://www.w3.org/2000/svg" xmlns:xlink="http://www.w3.org/1999/xlink" width="px" height="px" viewBox="0 0 80 117" version="1.1">
<g id="surface1">
<path style=" stroke:none;fill-rule:evenodd;fill:rgb(98.823529%,98.823529%,98.823529%);fill-opacity:1;" d="M -0.25 -0.25 C 26.417969 -0.25 53.082031 -0.25 79.75 -0.25 C 79.75 38.75 79.75 77.75 79.75 116.75 C 53.082031 116.75 26.417969 116.75 -0.25 116.75 C -0.25 77.75 -0.25 38.75 -0.25 -0.25 Z M -0.25 -0.25 "/>
<path style=" stroke:none;fill-rule:evenodd;fill:rgb(5.882353%,5.882353%,6.666667%);fill-opacity:1;" d="M 52.75 111.773438 C 50.507812 112.191406 48.339844 112.6875 46.25 113.265625 C 37.082031 114.4375 28.417969 112.945312 20.25 108.785156 C 20.011719 108.085938 19.511719 107.753906 18.75 107.789062 C 12.984375 104.625 8.234375 100.308594 4.5 94.84375 C 4.167969 80.242188 4.167969 65.636719 4.5 51.03125 C 20.390625 38.480469 32.308594 22.882812 40.25 4.230469 C 47.921875 22.664062 59.589844 38.097656 75.25 50.535156 C 75.832031 65.46875 75.917969 80.402344 75.5 95.34375 C 69.660156 103.234375 62.074219 108.710938 52.75 111.773438 Z M 52.75 111.773438 "/>
<path style=" stroke:none;fill-rule:evenodd;fill:rgb(96.862745%,96.862745%,96.862745%);fill-opacity:1;" d="M 71.25 53.023438 C 71.410156 56.105469 71.246094 59.09375 70.75 61.984375 C 58.730469 53.335938 48.5625 42.878906 40.25 30.621094 C 31.804688 43.011719 21.472656 53.632812 9.25 62.484375 C 8.667969 59.34375 8.585938 56.1875 9 53.023438 C 22.035156 42.3125 32.453125 29.53125 40.25 14.6875 C 48 29.539062 58.332031 42.320312 71.25 53.023438 Z M 71.25 53.023438 "/>
<path style=" stroke:none;fill-rule:evenodd;fill:rgb(96.862745%,96.862745%,96.862745%);fill-opacity:1;" d="M 71.25 66.964844 C 71.410156 69.878906 71.246094 72.703125 70.75 75.425781 C 64.917969 72.191406 59.417969 68.457031 54.25 64.226562 C 49.414062 59.660156 44.75 54.929688 40.25 50.035156 C 31.246094 60.417969 20.828125 69.046875 9 75.925781 C 8.585938 72.757812 8.667969 69.605469 9.25 66.464844 C 14.851562 62.761719 20.1875 58.695312 25.25 54.269531 C 30.433594 48.660156 35.433594 42.9375 40.25 37.089844 C 48.800781 48.925781 59.136719 58.886719 71.25 66.964844 Z M 71.25 66.964844 "/>
<path style=" stroke:none;fill-rule:evenodd;fill:rgb(69.019608%,69.019608%,69.019608%);fill-opacity:1;" d="M 71.25 53.023438 C 71.910156 56.097656 71.910156 59.253906 71.25 62.484375 C 70.945312 62.421875 70.78125 62.253906 70.75 61.984375 C 71.246094 59.09375 71.410156 56.105469 71.25 53.023438 Z M 71.25 53.023438 "/>
<path style=" stroke:none;fill-rule:evenodd;fill:rgb(96.470588%,96.470588%,96.470588%);fill-opacity:1;" d="M 48.25 108.289062 C 44.433594 108.714844 40.601562 108.878906 36.75 108.785156 C 35.417969 108.785156 34.082031 108.785156 32.75 108.785156 C 30.75 107.734375 28.582031 107.070312 26.25 106.792969 C 19.300781 104.113281 13.550781 99.796875 9 93.847656 C 8.582031 89.027344 8.667969 84.214844 9.25 79.410156 C 20.867188 73.160156 31.203125 65.191406 40.25 55.511719 C 49.136719 65.609375 59.554688 73.742188 71.5 79.910156 C 71.832031 84.554688 71.832031 89.203125 71.5 93.847656 C 65.445312 101.382812 57.695312 106.195312 48.25 108.289062 Z M 48.25 108.289062 "/>
<path style=" stroke:none;fill-rule:evenodd;fill:rgb(68.627451%,68.627451%,68.627451%);fill-opacity:1;" d="M 71.25 66.964844 C 71.910156 69.875 71.910156 72.863281 71.25 75.925781 C 70.945312 75.863281 70.78125 75.699219 70.75 75.425781 C 71.246094 72.703125 71.410156 69.878906 71.25 66.964844 Z M 71.25 66.964844 "/>
<path style=" stroke:none;fill-rule:evenodd;fill:rgb(1.568627%,1.176471%,3.137255%);fill-opacity:1;" d="M 33.75 100.820312 C 32.742188 100.109375 31.574219 99.777344 30.25 99.824219 C 23.121094 97.375 17.621094 92.894531 13.75 86.378906 C 23.285156 80.871094 32.121094 74.398438 40.25 66.964844 C 48.28125 74.53125 57.117188 81.003906 66.75 86.378906 C 58.683594 97.960938 47.6875 102.773438 33.75 100.820312 Z M 33.75 100.820312 "/>
<path style=" stroke:none;fill-rule:evenodd;fill:rgb(40%,40%,40%);fill-opacity:1;" d="M 30.25 99.824219 C 31.574219 99.777344 32.742188 100.109375 33.75 100.820312 C 32.425781 100.863281 31.257812 100.53125 30.25 99.824219 Z M 30.25 99.824219 "/>
<path style=" stroke:none;fill-rule:evenodd;fill:rgb(55.686275%,55.686275%,56.078431%);fill-opacity:1;" d="M 26.25 106.792969 C 28.582031 107.070312 30.75 107.734375 32.75 108.785156 C 30.417969 108.507812 28.25 107.84375 26.25 106.792969 Z M 26.25 106.792969 "/>
<path style=" stroke:none;fill-rule:evenodd;fill:rgb(43.137255%,43.137255%,43.137255%);fill-opacity:1;" d="M 18.75 107.789062 C 19.511719 107.753906 20.011719 108.085938 20.25 108.785156 C 19.488281 108.820312 18.988281 108.488281 18.75 107.789062 Z M 18.75 107.789062 "/>
<path style=" stroke:none;fill-rule:evenodd;fill:rgb(64.705882%,64.705882%,64.705882%);fill-opacity:1;" d="M 48.25 108.289062 C 46.746094 109.121094 45.078125 109.453125 43.25 109.28125 C 40.984375 109.441406 38.816406 109.277344 36.75 108.785156 C 40.601562 108.878906 44.433594 108.714844 48.25 108.289062 Z M 48.25 108.289062 "/>
<path style=" stroke:none;fill-rule:evenodd;fill:rgb(28.627451%,28.627451%,29.019608%);fill-opacity:1;" d="M 32.75 108.785156 C 34.082031 108.785156 35.417969 108.785156 36.75 108.785156 C 38.816406 109.277344 40.984375 109.441406 43.25 109.28125 C 39.71875 109.976562 36.21875 109.8125 32.75 108.785156 Z M 32.75 108.785156 "/>
<path style=" stroke:none;fill-rule:evenodd;fill:rgb(72.941176%,72.941176%,72.941176%);fill-opacity:1;" d="M 52.75 111.773438 C 50.824219 113.035156 48.65625 113.53125 46.25 113.265625 C 48.339844 112.6875 50.507812 112.191406 52.75 111.773438 Z M 52.75 111.773438 "/>
</g>
</svg>
