<?xml version="1.0" encoding="UTF-8"?>
<!DOCTYPE svg PUBLIC "-//W3C//DTD SVG 1.1//EN" "http://www.w3.org/Graphics/SVG/1.1/DTD/svg11.dtd">
<svg xmlns="http://www.w3.org/2000/svg" version="1.1" width="160px" height="235px" style="shape-rendering:geometricPrecision; text-rendering:geometricPrecision; image-rendering:optimizeQuality; fill-rule:evenodd; clip-rule:evenodd" xmlns:xlink="http://www.w3.org/1999/xlink">
<g><path style="opacity:1" fill="#fcfcfc" d="M -0.5,-0.5 C 52.8333,-0.5 106.167,-0.5 159.5,-0.5C 159.5,77.8333 159.5,156.167 159.5,234.5C 106.167,234.5 52.8333,234.5 -0.5,234.5C -0.5,156.167 -0.5,77.8333 -0.5,-0.5 Z"/></g>
<g><path style="opacity:1" fill="#0f0f11" d="M 105.5,224.5 C 101.015,225.34 96.6813,226.34 92.5,227.5C 74.1673,229.855 56.8339,226.855 40.5,218.5C 40.0269,217.094 39.0269,216.427 37.5,216.5C 25.9705,210.141 16.4705,201.474 9,190.5C 8.33333,161.167 8.33333,131.833 9,102.5C 40.7827,77.2937 64.616,45.9603 80.5,8.5C 95.8433,45.5226 119.177,76.5226 150.5,101.5C 151.667,131.494 151.833,161.494 151,191.5C 139.319,207.354 124.152,218.354 105.5,224.5 Z"/></g>
<g><path style="opacity:1" fill="#f7f7f7" d="M 142.5,106.5 C 142.823,112.69 142.49,118.69 141.5,124.5C 117.459,107.125 97.1254,86.1249 80.5,61.5C 63.6115,86.3902 42.9448,107.724 18.5,125.5C 17.3361,119.193 17.1694,112.859 18,106.5C 44.0725,84.9841 64.9059,59.3175 80.5,29.5C 95.999,59.3319 116.666,84.9985 142.5,106.5 Z"/></g>
<g><path style="opacity:1" fill="#f7f7f7" d="M 142.5,134.5 C 142.822,140.358 142.489,146.025 141.5,151.5C 129.833,145.003 118.833,137.503 108.5,129C 98.8319,119.832 89.4985,110.332 80.5,100.5C 62.4896,121.354 41.6563,138.687 18,152.5C 17.1694,146.141 17.3361,139.807 18.5,133.5C 29.7069,126.06 40.3735,117.894 50.5,109C 60.8639,97.74 70.8639,86.24 80.5,74.5C 97.6048,98.2729 118.271,118.273 142.5,134.5 Z"/></g>
<g><path style="opacity:1" fill="#b0b0b0" d="M 142.5,106.5 C 143.817,112.678 143.817,119.012 142.5,125.5C 141.893,125.376 141.56,125.043 141.5,124.5C 142.49,118.69 142.823,112.69 142.5,106.5 Z"/></g>
<g><path style="opacity:1" fill="#f6f6f6" d="M 96.5,217.5 C 88.8678,218.358 81.2011,218.691 73.5,218.5C 70.8333,218.5 68.1667,218.5 65.5,218.5C 61.4979,216.39 57.1646,215.057 52.5,214.5C 38.6039,209.116 27.1039,200.449 18,188.5C 17.1679,178.816 17.3345,169.149 18.5,159.5C 41.7377,146.942 62.4044,130.942 80.5,111.5C 98.2734,131.778 119.107,148.111 143,160.5C 143.667,169.833 143.667,179.167 143,188.5C 130.892,203.636 115.392,213.302 96.5,217.5 Z"/></g>
<g><path style="opacity:1" fill="#afafaf" d="M 142.5,134.5 C 143.817,140.346 143.817,146.346 142.5,152.5C 141.893,152.376 141.56,152.043 141.5,151.5C 142.489,146.025 142.822,140.358 142.5,134.5 Z"/></g>
<g><path style="opacity:1" fill="#040308" d="M 67.5,202.5 C 65.4855,201.076 63.1522,200.41 60.5,200.5C 46.2431,195.585 35.2431,186.585 27.5,173.5C 46.5723,162.43 64.239,149.43 80.5,134.5C 96.5664,149.697 114.233,162.697 133.5,173.5C 117.371,196.758 95.3712,206.424 67.5,202.5 Z"/></g>
<g><path style="opacity:1" fill="#666666" d="M 60.5,200.5 C 63.1522,200.41 65.4855,201.076 67.5,202.5C 64.8478,202.59 62.5145,201.924 60.5,200.5 Z"/></g>
<g><path style="opacity:1" fill="#8e8e8f" d="M 52.5,214.5 C 57.1646,215.057 61.4979,216.39 65.5,218.5C 60.8354,217.943 56.5021,216.61 52.5,214.5 Z"/></g>
<g><path style="opacity:1" fill="#6e6e6e" d="M 37.5,216.5 C 39.0269,216.427 40.0269,217.094 40.5,218.5C 38.9731,218.573 37.9731,217.906 37.5,216.5 Z"/></g>
<g><path style="opacity:1" fill="#a5a5a5" d="M 96.5,217.5 C 93.4928,219.175 90.1595,219.841 86.5,219.5C 81.9677,219.818 77.6344,219.485 73.5,218.5C 81.2011,218.691 88.8678,218.358 96.5,217.5 Z"/></g>
<g><path style="opacity:1" fill="#49494a" d="M 65.5,218.5 C 68.1667,218.5 70.8333,218.5 73.5,218.5C 77.6344,219.485 81.9677,219.818 86.5,219.5C 79.436,220.896 72.436,220.563 65.5,218.5 Z"/></g>
<g><path style="opacity:1" fill="#bababa" d="M 105.5,224.5 C 101.645,227.035 97.3118,228.035 92.5,227.5C 96.6813,226.34 101.015,225.34 105.5,224.5 Z"/></g>
</svg>
